<?xml version="1.0" standalone="no"?>
<!DOCTYPE svg PUBLIC "-//W3C//DTD SVG 20010904//EN"
 "http://www.w3.org/TR/2001/REC-SVG-20010904/DTD/svg10.dtd">
<svg version="1.0" xmlns="http://www.w3.org/2000/svg"
 width="512.000000pt" height="512.000000pt" viewBox="0 0 512.000000 512.000000"
 preserveAspectRatio="xMidYMid meet">

<g transform="translate(0.000000,512.000000) scale(0.100000,-0.100000)"
fill="#000000" stroke="none">
<path d="M2315 5109 c-800 -83 -1501 -518 -1927 -1196 -487 -774 -516 -1777
-75 -2578 200 -364 487 -676 841 -913 238 -159 600 -311 876 -366 214 -43 295
-51 530 -51 236 0 333 10 532 51 880 184 1615 842 1898 1702 92 278 125 491
125 802 0 301 -32 513 -116 775 -124 390 -330 728 -622 1024 -399 404 -893
653 -1462 737 -123 18 -478 26 -600 13z m1225 -978 l0 -309 -232 -4 c-188 -4
-243 -8 -283 -22 -73 -26 -114 -61 -144 -125 -26 -56 -26 -58 -29 -333 l-4
-278 331 0 331 0 0 -330 0 -330 -327 -2 -328 -3 -3 -857 -2 -858 -345 0 -345
0 0 860 0 860 -290 0 -290 0 0 330 0 330 290 0 290 0 0 283 c0 359 13 467 74
619 59 145 173 280 301 356 81 48 222 97 315 110 36 5 206 10 378 11 l312 1 0
-309z"/>
</g>
</svg>
