<?xml version="1.0" standalone="no"?>
<!DOCTYPE svg PUBLIC "-//W3C//DTD SVG 20010904//EN"
 "http://www.w3.org/TR/2001/REC-SVG-20010904/DTD/svg10.dtd">
<svg version="1.0" xmlns="http://www.w3.org/2000/svg"
 width="225.000000pt" height="225.000000pt" viewBox="0 0 225.000000 225.000000"
 preserveAspectRatio="xMidYMid meet">

<g transform="translate(0.000000,225.000000) scale(0.100000,-0.100000)"
fill="#000000" stroke="none">
<path d="M630 2240 c-124 -10 -208 -31 -300 -78 -136 -68 -241 -196 -289 -355
-30 -99 -41 -281 -41 -682 0 -540 15 -665 98 -815 71 -129 213 -236 367 -275
98 -25 278 -35 660 -35 382 0 562 10 660 35 164 42 307 154 377 295 75 150 88
263 88 795 0 382 -10 562 -35 660 -42 164 -154 307 -295 377 -97 49 -168 66
-315 78 -137 11 -833 11 -975 0z m1072 -214 c37 -8 88 -24 114 -35 66 -30 157
-126 183 -194 42 -115 46 -168 46 -672 0 -504 -4 -558 -47 -672 -28 -77 -124
-173 -200 -201 -116 -43 -159 -46 -673 -46 -513 0 -557 3 -672 46 -67 25 -165
117 -194 182 -44 100 -50 162 -56 566 -10 703 14 833 174 955 108 82 224 95
833 90 332 -3 440 -7 492 -19z"/>
<path d="M1655 1840 c-37 -24 -65 -74 -65 -115 0 -63 71 -135 133 -135 73 0
137 63 137 136 0 102 -121 169 -205 114z"/>
<path d="M981 1684 c-201 -54 -365 -219 -416 -419 -19 -76 -19 -204 0 -280 52
-202 216 -366 420 -420 76 -19 204 -19 280 0 204 54 368 218 420 420 19 76 19
204 0 280 -52 202 -216 366 -420 420 -73 19 -212 18 -284 -1z m300 -221 c81
-38 144 -100 183 -183 28 -58 31 -75 31 -155 0 -80 -3 -97 -31 -155 -39 -83
-101 -145 -184 -184 -58 -28 -75 -31 -155 -31 -80 0 -97 3 -155 31 -83 39
-145 101 -184 184 -28 58 -31 75 -31 155 0 80 3 97 31 155 91 191 308 271 495
183z"/>
</g>
</svg>
