<?xml version="1.0" standalone="no"?>
<!DOCTYPE svg PUBLIC "-//W3C//DTD SVG 20010904//EN"
 "http://www.w3.org/TR/2001/REC-SVG-20010904/DTD/svg10.dtd">
<svg version="1.0" xmlns="http://www.w3.org/2000/svg"
 width="2000.000000pt" height="2000.000000pt" viewBox="0 0 2000.000000 2000.000000"
 preserveAspectRatio="xMidYMid meet">

<g transform="translate(0.000000,2000.000000) scale(0.100000,-0.100000)"
fill="#000000" stroke="none">
<path d="M3369 16580 c-64 -11 -98 -31 -148 -85 -46 -50 -65 -88 -75 -150 -3
-22 -76 -839 -161 -1815 -120 -1379 -153 -1783 -145 -1811 17 -60 66 -118 123
-145 l52 -24 389 0 389 0 58 -64 c32 -35 86 -80 119 -100 34 -20 63 -36 65
-36 1 0 5 15 8 33 3 25 -4 46 -34 96 -22 36 -39 70 -39 77 0 7 -15 20 -34 29
-110 52 -162 174 -101 239 50 54 133 27 177 -57 l21 -42 15 35 c8 19 17 71 20
114 4 69 9 85 36 120 28 38 43 66 78 151 l12 30 4 -44 c2 -23 -2 -57 -7 -73
l-11 -31 53 6 c28 3 61 8 72 12 12 4 8 -1 -9 -13 -16 -11 -33 -27 -38 -36 -14
-25 10 -29 42 -6 16 11 48 24 70 28 51 9 53 25 3 32 l-38 5 40 12 c53 16 106
56 128 96 l17 32 0 -48 c0 -26 -7 -63 -14 -82 -14 -34 -14 -35 7 -35 12 0 49
12 82 25 33 14 61 25 62 25 0 0 6 -14 12 -30 10 -29 9 -30 -17 -24 -15 3 -32
7 -38 9 -16 5 -38 -11 -30 -23 3 -5 20 -12 38 -16 35 -7 78 -42 78 -62 0 -7
-18 -18 -39 -24 -21 -5 -42 -17 -45 -26 -11 -27 -6 -71 8 -83 30 -25 66 21 53
69 -5 18 19 37 32 24 12 -11 13 -255 2 -321 -23 -135 -90 -231 -200 -285 -39
-19 -62 -23 -146 -23 -92 0 -106 3 -162 30 l-62 31 17 -29 c9 -16 39 -50 67
-75 l50 -47 9 28 c7 19 15 26 26 21 68 -27 505 -112 517 -101 1 2 -4 35 -12
73 -26 121 -29 219 -10 359 9 72 18 202 20 290 2 94 65 861 151 1851 167 1909
160 1738 74 1825 -32 32 -59 49 -92 57 -53 13 -450 16 -483 3 -11 -5 -28 -30
-40 -61 -35 -91 -45 -94 -267 -98 -105 -2 -207 -1 -226 3 -42 8 -82 49 -82 85
0 15 -9 38 -19 51 -19 24 -22 24 -223 26 -111 0 -224 -2 -249 -7z m455 -46 c3
-9 6 -26 6 -38 0 -29 33 -72 70 -91 40 -21 425 -22 473 -1 42 18 74 53 90 101
l14 40 245 0 c244 0 245 0 282 -25 22 -15 47 -45 62 -77 l26 -53 -11 -137 c-7
-76 -14 -157 -17 -180 l-6 -43 -954 0 c-902 0 -954 1 -954 18 0 9 7 88 15 174
16 175 29 213 91 268 65 57 78 59 330 60 202 0 233 -2 238 -16z m1232 -571
c-3 -21 -60 -668 -126 -1438 -67 -770 -123 -1411 -126 -1424 -5 -22 -9 -17
-35 34 -16 33 -36 66 -44 75 -7 8 -23 42 -36 75 -15 41 -38 76 -71 110 -45 45
-50 53 -45 86 l5 37 -147 7 c-80 4 -180 7 -221 6 -41 -1 -287 -4 -546 -6
l-471 -6 -16 -197 c-10 -108 -17 -203 -17 -209 0 -10 58 -13 254 -13 l254 0
-5 -77 c-7 -97 14 -205 63 -322 19 -47 38 -94 41 -104 5 -17 -13 -18 -378 -15
l-384 3 -45 27 c-61 35 -93 94 -93 167 0 60 272 3188 278 3209 4 9 204 12 961
12 l956 0 -6 -37z m-1121 -2517 c-88 -59 -176 -165 -244 -296 -7 -13 -48 -15
-255 -18 l-247 -2 6 47 c7 64 25 264 25 286 0 16 25 17 382 17 l383 0 -50 -34z
m605 19 c0 -12 -7 -14 -27 -9 -53 13 -60 23 -15 24 31 0 42 -4 42 -15z"/>
<path d="M3496 15478 c-3 -18 -24 -247 -46 -508 -22 -261 -43 -499 -46 -527
l-6 -53 566 0 566 0 0 23 c0 12 20 251 45 532 25 280 45 522 45 537 l0 28
-560 0 -559 0 -5 -32z m1094 -1 c0 -1 -20 -232 -45 -512 -25 -281 -45 -518
-45 -527 0 -17 -32 -18 -533 -18 l-533 0 47 528 c26 290 48 528 48 530 1 3
1061 3 1061 -1z"/>
<path d="M3591 14017 c-68 -35 -86 -124 -36 -178 73 -75 195 -21 195 88 0 82
-83 129 -159 90z m109 -37 c28 -28 25 -72 -6 -109 -20 -25 -34 -31 -63 -31
-58 0 -84 40 -68 102 14 52 99 76 137 38z"/>
<path d="M3875 14012 c-41 -26 -55 -44 -62 -85 -7 -46 19 -93 63 -114 31 -15
39 -16 77 -3 50 18 87 68 87 117 0 26 -8 43 -34 69 -40 40 -83 45 -131 16z
m114 -36 c19 -20 22 -32 17 -60 -14 -72 -104 -102 -146 -49 -61 77 62 180 129
109z"/>
<path d="M4156 14011 c-38 -25 -55 -57 -56 -101 -1 -121 162 -146 215 -33 48
101 -65 196 -159 134z m127 -42 c17 -24 18 -31 7 -63 -14 -44 -44 -66 -87 -66
-72 0 -97 77 -43 131 39 39 93 38 123 -2z"/>
<path d="M15305 16256 c-55 -25 -104 -74 -136 -138 -19 -38 -36 -211 -179
-1848 -110 -1259 -156 -1819 -150 -1844 12 -53 53 -111 102 -143 l42 -28 815
0 816 0 42 23 c62 33 108 84 131 144 17 44 45 343 177 1843 89 1026 154 1808
150 1831 -9 66 -54 127 -116 158 -53 26 -54 26 -289 26 -260 0 -259 0 -274
-63 -3 -15 -19 -42 -35 -60 l-29 -32 -213 -3 c-148 -2 -221 0 -241 9 -30 12
-58 54 -58 86 0 10 -7 29 -16 41 -15 22 -19 22 -252 22 -227 0 -239 -1 -287
-24z m519 -22 c3 -9 6 -25 6 -36 0 -29 29 -73 60 -92 24 -13 62 -16 245 -16
229 0 248 3 290 50 11 12 29 41 40 64 l20 41 220 3 c248 3 281 -3 334 -64 47
-53 54 -96 41 -248 -6 -72 -13 -148 -16 -168 l-6 -38 -954 0 c-902 0 -954 1
-954 18 0 72 32 327 46 361 19 47 70 95 128 122 36 16 69 19 267 19 198 0 228
-2 233 -16z m1231 -581 c-3 -27 -66 -745 -140 -1598 -74 -852 -140 -1571 -146
-1597 -13 -56 -65 -120 -123 -151 l-41 -22 -795 -3 -796 -2 -44 23 c-66 34
-104 100 -102 175 1 65 272 3190 278 3210 3 9 203 12 959 12 l956 0 -6 -47z"/>
<path d="M15306 15383 c-3 -27 -10 -106 -16 -178 -6 -71 -13 -145 -16 -162
l-5 -33 786 0 c741 0 785 1 785 18 1 9 9 104 18 210 l18 192 -782 0 -782 0 -6
-47z m1389 7 c-11 -5 -155 -42 -320 -82 l-300 -72 -290 73 c-159 41 -297 78
-305 82 -8 5 266 8 610 8 375 0 617 -4 605 -9z m-1015 -84 c179 -46 318 -86
310 -90 -30 -11 -675 -164 -678 -161 -4 4 16 249 24 303 3 17 8 32 12 32 4 0
153 -38 332 -84z m1160 77 c-1 -28 -30 -327 -33 -329 -4 -5 -640 157 -649 165
-6 5 630 167 670 170 6 1 12 -2 12 -6z m-450 -258 l285 -74 -615 0 -615 0 200
50 c110 27 243 60 295 73 52 13 111 24 130 25 19 0 163 -33 320 -74z"/>
<path d="M15260 14868 c0 -7 -7 -85 -15 -173 -8 -88 -15 -175 -15 -192 l0 -33
779 0 780 0 5 43 c3 23 10 101 16 172 6 72 13 145 16 163 l5 32 -786 0 c-621
0 -785 -3 -785 -12z m1409 -22 c-2 -2 -148 -38 -324 -81 l-320 -77 -310 80
-310 81 634 0 c349 1 632 -1 630 -3z m-1036 -88 c180 -46 321 -85 315 -87 -28
-10 -683 -168 -686 -166 -3 2 11 161 24 283 3 28 8 52 12 52 4 1 154 -36 335
-82z m1157 60 c0 -36 -21 -292 -25 -305 -3 -10 -377 79 -630 149 -39 11 -29
14 290 94 182 45 338 82 348 83 11 1 17 -6 17 -21z m-435 -244 l280 -72 -620
0 c-341 0 -615 1 -610 4 50 20 625 151 645 147 14 -4 151 -39 305 -79z"/>
<path d="M15210 14308 c0 -13 -7 -95 -15 -183 -8 -88 -15 -170 -15 -182 l0
-23 780 0 780 0 4 23 c3 12 10 85 16 162 6 77 13 159 16 183 l6 42 -786 0
-786 0 0 -22z m696 -181 c2 -2 -152 -41 -342 -86 -189 -46 -346 -82 -348 -80
-2 2 2 69 10 149 7 80 13 155 14 167 0 21 11 19 332 -63 182 -46 333 -85 334
-87z m699 167 c-5 -2 -149 -37 -320 -78 l-310 -75 -305 79 -305 79 625 -1
c344 0 621 -1 615 -4z m135 -21 c1 -77 -25 -313 -34 -313 -26 -1 -658 165
-645 169 36 13 637 159 657 160 15 1 22 -5 22 -16z m-456 -239 c166 -42 303
-78 305 -80 2 -2 -279 -4 -625 -3 l-629 1 310 78 c171 43 316 78 324 79 8 1
149 -33 315 -75z"/>
<path d="M15160 13763 c0 -16 -20 -262 -45 -548 -25 -286 -45 -528 -45 -537 0
-17 40 -18 780 -18 l780 0 4 23 c4 19 97 1079 96 1100 0 4 -353 7 -785 7
l-785 0 0 -27z m1490 -17 c-28 -26 -738 -496 -750 -496 -11 0 -670 497 -670
506 0 2 323 4 717 4 608 0 715 -2 703 -14z m-1133 -247 c175 -133 326 -249
336 -259 18 -17 4 -27 -363 -274 -210 -142 -383 -256 -385 -254 -3 4 89 1028
92 1028 2 0 146 -109 320 -241z m1136 -236 c-23 -263 -42 -495 -42 -516 -1
-21 -5 -37 -10 -35 -24 8 -670 504 -667 512 2 8 743 512 756 515 3 0 -13 -214
-37 -476z m-409 -318 l329 -250 -356 -3 c-196 -1 -519 -1 -718 0 l-362 3 374
252 c206 139 381 251 389 250 8 -1 163 -114 344 -252z"/>
<path d="M9045 15680 l-1810 -5 -74 -23 c-115 -35 -189 -70 -279 -128 -245
-160 -400 -420 -432 -726 -10 -101 -80 -891 -80 -909 0 -5 -133 -9 -310 -9
-170 0 -310 -4 -310 -8 0 -9 -134 -1548 -195 -2232 -36 -409 -39 -447 -30
-438 5 5 235 2593 235 2646 l0 22 1443 2 c1304 3 1343 3 400 5 -574 2 -1043 4
-1043 6 0 16 81 925 86 962 36 282 240 519 529 616 l70 24 637 3 c566 3 642 1
670 -13 51 -25 69 -57 77 -143 14 -139 72 -227 183 -278 l63 -29 560 -3 c586
-3 651 0 729 40 107 54 172 135 212 264 13 45 34 94 46 109 44 56 35 55 706
55 586 0 623 -1 697 -20 226 -58 396 -243 441 -480 l16 -85 -112 -1285 -113
-1285 -47 -76 c-113 -180 -167 -317 -157 -401 8 -66 51 -141 103 -181 39 -29
43 -35 38 -67 -2 -19 -142 -1608 -309 -3530 -168 -1922 -311 -3526 -319 -3565
-57 -282 -248 -487 -538 -577 l-73 -23 -2205 -3 c-1575 -2 -2227 0 -2283 8
-302 43 -521 298 -519 605 0 79 32 478 48 608 l6 47 248 0 c155 0 251 4 255
10 4 7 -213 10 -644 10 l-651 0 0 25 c0 26 205 2384 216 2488 l6 57 884 0
c583 0 884 3 884 10 0 7 -168 10 -485 10 l-485 0 0 23 c0 15 24 285 30 335 0
1 1156 2 2569 2 l2570 0 5 43 c5 36 164 1854 419 4795 l62 722 -70 0 -70 0
-93 -1077 c-88 -1012 -96 -1087 -128 -1228 -33 -143 -40 -217 -160 -1600 -68
-797 -127 -1456 -129 -1462 -3 -10 -66 -13 -270 -13 -227 0 -266 -2 -271 -15
-5 -13 -142 -15 -1146 -15 -1009 0 -1139 2 -1134 15 5 13 -23 15 -214 15 -189
0 -220 -2 -220 -15 0 -13 -42 -15 -320 -15 -280 0 -319 2 -314 15 5 13 -102
15 -930 15 -515 0 -936 3 -936 6 0 3 50 573 110 1266 97 1108 117 1367 96
1237 -3 -19 -44 -479 -92 -1024 -47 -544 -95 -1104 -108 -1242 l-22 -253 84 0
84 0 -7 -85 -7 -85 226 0 227 0 -5 -32 c-3 -18 -10 -94 -16 -168 -6 -74 -13
-141 -15 -147 -3 -10 -74 -13 -309 -13 l-305 0 -5 -32 c-3 -18 -10 -89 -15
-158 -24 -288 -201 -2319 -207 -2367 l-5 -53 309 0 310 0 -4 -32 c-2 -18 -15
-174 -30 -347 -30 -354 -27 -414 25 -561 37 -105 82 -177 166 -268 108 -116
237 -192 400 -234 40 -10 517 -13 2440 -13 l2390 0 86 27 c118 37 188 69 271
124 230 153 388 398 427 664 6 41 153 1699 326 3685 173 1986 317 3619 320
3630 3 11 26 42 50 70 l45 49 0 -135 c0 -303 52 -893 120 -1374 18 -130 127
-1117 235 -2140 25 -236 59 -554 75 -705 39 -358 137 -1384 266 -2790 31 -338
58 -617 60 -619 5 -5 515 -23 521 -18 2 3 8 153 13 333 41 1494 47 2931 16
3525 -10 196 -16 364 -15 374 5 24 259 -793 259 -832 0 -17 -45 -544 -100
-1172 -58 -656 -97 -1159 -94 -1182 10 -62 53 -120 115 -154 l54 -30 470 -3
471 -3 153 -413 c84 -227 156 -419 161 -426 7 -11 55 -10 279 7 150 11 273 22
276 24 3 3 -193 685 -229 795 -5 18 0 23 33 33 57 17 132 80 158 133 13 24 27
78 32 119 6 41 78 859 162 1819 131 1504 150 1751 140 1788 -16 58 -92 136
-146 151 -42 11 -461 16 -489 5 -9 -3 -29 -34 -46 -68 -19 -40 -38 -67 -55
-74 -37 -17 -454 -16 -476 1 -21 16 -39 51 -39 75 0 11 -9 31 -21 46 -20 26
-21 26 -163 26 l-143 0 -7 103 c-14 201 -41 354 -93 510 -14 43 -23 80 -21 82
2 3 46 -7 97 -21 51 -14 95 -23 97 -21 3 2 -113 242 -257 533 -259 525 -261
530 -266 604 -3 41 -2 127 2 189 7 113 7 114 21 75 21 -63 60 -90 124 -84 47
4 345 121 437 172 288 158 523 409 523 557 0 42 -4 48 -82 125 -353 343 -869
775 -1038 868 -115 64 -179 76 -456 87 -350 14 -705 -8 -836 -54 -23 -8 -44
-12 -46 -11 -2 2 22 42 53 88 47 72 54 88 47 109 -18 46 -95 92 -173 104 -44
7 -48 5 -86 -32 -21 -21 -51 -54 -67 -73 l-27 -35 6 55 c33 311 157 1801 157
1885 -1 353 -227 653 -572 756 -74 22 -83 23 -665 24 -324 0 -1404 -2 -2400
-5z m5295 -3636 c47 -39 156 -126 243 -193 87 -68 155 -127 150 -131 -4 -4
-62 -51 -128 -105 -66 -55 -197 -163 -292 -242 -94 -79 -175 -143 -179 -143
-15 0 15 376 56 700 28 214 28 215 48 197 10 -7 55 -45 102 -83z m520 -3003
c5 -11 10 -32 10 -46 0 -17 12 -39 33 -60 42 -42 84 -48 312 -43 210 4 233 12
280 104 l31 59 219 3 c218 2 219 2 272 -24 54 -26 93 -75 107 -135 3 -14 -1
-98 -9 -185 -8 -87 -15 -165 -15 -171 0 -16 -1425 -19 -1435 -3 -20 33 -99
492 -88 513 2 4 65 7 138 7 123 0 135 -2 145 -19z m1234 -573 c-2 -18 -65
-730 -139 -1583 -74 -852 -138 -1568 -141 -1590 -9 -57 -36 -106 -82 -147 -36
-32 -107 -66 -118 -56 -5 5 -94 309 -94 321 0 4 23 7 51 7 93 0 149 46 149
122 0 36 -22 69 -57 87 -12 6 -64 11 -116 11 l-94 0 -21 74 c-12 41 -22 77
-22 80 0 3 55 6 123 6 144 0 181 13 210 72 15 31 17 44 7 72 -22 67 -33 70
-228 76 l-176 5 -18 60 c-10 33 -21 68 -24 78 -5 16 9 17 191 17 201 0 218 3
262 43 45 40 38 132 -11 160 -14 8 -101 14 -265 17 l-244 5 -27 100 c-119 437
-190 703 -190 713 0 9 95 12 393 12 430 0 420 -1 452 60 29 55 13 113 -38 142
-16 10 -132 14 -446 18 l-424 5 -18 65 c-10 36 -18 68 -19 73 0 4 195 7 433 7
264 0 446 4 469 10 74 21 113 111 72 169 -35 50 -48 51 -562 51 l-479 0 -18
68 c-10 37 -20 73 -23 80 -3 9 107 12 528 12 l532 0 39 39 c43 43 49 73 24
121 -29 56 -15 55 -625 60 l-565 5 -36 143 -37 142 713 0 714 0 -5 -32z m-220
-299 c36 -17 50 -63 31 -100 -9 -15 -24 -33 -34 -39 -13 -6 -204 -10 -545 -10
l-525 0 -21 69 c-11 37 -20 73 -20 80 0 16 1078 16 1114 0z m-31 -380 c30 -16
37 -28 37 -67 0 -22 -8 -41 -25 -58 l-24 -24 -463 2 -463 3 -17 60 c-29 106
-83 95 458 95 339 0 482 -3 497 -11z m-1653 -519 c45 -135 132 -384 191 -554
60 -169 109 -310 109 -312 0 -2 -70 -4 -156 -4 l-156 0 -34 -34 c-28 -28 -34
-42 -34 -76 0 -96 19 -104 265 -110 l199 -5 28 -75 c15 -41 28 -76 28 -77 0
-2 -108 -3 -240 -3 l-240 0 -38 -34 c-32 -30 -37 -40 -37 -80 0 -36 6 -51 28
-73 l27 -28 291 -5 291 -5 29 -77 28 -78 -322 0 c-301 0 -324 -1 -351 -19 -54
-36 -70 -94 -42 -150 26 -49 39 -51 431 -51 l363 0 16 -42 c9 -24 36 -97 60
-163 l44 -120 -446 -3 c-246 -1 -462 0 -480 3 -45 8 -117 79 -131 130 -9 33 6
239 84 1135 91 1046 102 1167 109 1159 2 -2 41 -114 86 -249z m1615 136 c39
-17 52 -48 36 -88 -22 -59 -22 -58 -447 -56 l-389 3 -17 60 c-29 106 -73 95
382 95 325 0 407 -3 435 -14z m-1273 -1111 c22 -60 25 -77 14 -81 -8 -3 -93
-4 -189 -2 -155 3 -177 5 -196 22 -23 21 -27 56 -9 89 23 43 36 46 198 47
l155 0 27 -75z m1208 53 c32 -34 21 -89 -23 -119 -31 -20 -408 -27 -423 -7 -9
11 -44 126 -44 143 0 3 106 5 235 5 228 0 235 -1 255 -22z m-1074 -427 c13
-35 24 -70 24 -77 0 -12 -47 -14 -269 -14 -242 0 -271 2 -289 18 -34 28 -33
82 3 118 l24 24 242 -2 241 -3 24 -64z m1034 49 c29 -29 26 -81 -6 -111 -24
-23 -31 -24 -161 -24 l-136 0 -19 65 c-10 36 -18 71 -18 78 0 9 39 12 160 12
147 0 162 -2 180 -20z m-894 -430 c13 -36 24 -71 24 -78 0 -10 -76 -12 -361
-10 l-362 3 -20 27 c-24 32 -18 68 18 104 l24 24 327 -2 326 -3 24 -65z m847
59 c30 -16 37 -28 37 -65 0 -50 -38 -77 -115 -82 -48 -3 -66 -1 -70 9 -3 8
-14 44 -24 82 l-20 67 85 0 c47 0 95 -5 107 -11z"/>
<path d="M7506 15188 c-4 -57 -10 -118 -13 -135 l-5 -33 45 0 44 0 6 58 c4 31
10 92 13 135 l7 77 -45 0 -45 0 -7 -102z"/>
<path d="M11387 15273 c-4 -3 -7 -17 -7 -30 0 -16 -8 -27 -25 -33 -23 -9 -25
-15 -25 -65 0 -49 2 -55 21 -55 19 0 21 -4 16 -35 l-6 -35 194 0 c225 0 200
-18 211 153 l7 107 -190 0 c-104 0 -193 -3 -196 -7z m166 -110 c-7 -86 -5 -83
-78 -83 l-65 0 0 33 c0 17 3 49 6 70 l7 37 68 0 68 0 -6 -57z"/>
<path d="M7326 15178 c-3 -13 -7 -53 -10 -90 l-5 -68 43 0 43 0 7 53 c3 28 6
69 6 90 0 37 0 37 -40 37 -33 0 -40 -4 -44 -22z"/>
<path d="M7140 15096 c0 -7 -3 -28 -6 -45 l-6 -31 46 0 c44 0 46 1 46 29 0 16
3 36 6 45 5 13 -2 16 -40 16 -32 0 -46 -4 -46 -14z"/>
<path d="M6640 14695 l0 -25 2805 0 2805 0 0 25 0 25 -2805 0 -2805 0 0 -25z"/>
<path d="M7130 14480 c0 -19 7 -20 220 -20 213 0 220 1 220 20 0 19 -7 20
-220 20 -213 0 -220 -1 -220 -20z"/>
<path d="M7900 14485 c0 -5 -7 -82 -15 -170 -8 -88 -15 -168 -15 -177 0 -17
27 -18 418 -18 l419 0 48 180 c27 99 46 182 44 185 -10 10 -899 10 -899 0z"/>
<path d="M9430 14448 c-22 -83 -81 -303 -85 -315 -3 -10 43 -13 213 -13 l217
0 43 163 c24 89 45 172 49 185 l5 22 -215 0 -216 0 -11 -42z"/>
<path d="M13371 14465 c-18 -8 -50 -15 -70 -15 -44 0 -112 -30 -146 -64 -27
-27 -34 -82 -15 -130 8 -23 7 -26 -11 -26 -28 0 -67 -46 -75 -87 -4 -19 -13
-36 -20 -39 -49 -15 -50 -16 -29 -24 11 -4 23 -6 28 -3 4 2 7 -5 7 -15 0 -11
7 -25 15 -32 8 -7 15 -18 15 -26 0 -7 8 -29 17 -48 14 -30 14 -40 4 -63 -17
-38 -27 -163 -13 -163 6 0 16 17 22 38 25 93 92 162 154 162 118 -2 111 -177
-10 -301 -45 -46 -45 -47 -31 -75 8 -16 29 -69 46 -118 18 -50 37 -96 42 -103
19 -22 122 -46 204 -47 134 -1 159 11 278 133 57 58 126 137 155 176 l51 69
69 1 c63 0 74 3 108 31 47 38 53 54 21 54 -38 0 -56 10 -71 39 -18 35 -21 70
-12 167 9 90 -5 137 -44 149 -16 5 -20 15 -20 51 0 25 -7 58 -15 74 -23 44
-82 80 -131 80 -37 0 -43 3 -55 31 -17 42 -91 89 -141 89 -20 0 -53 -7 -72
-17 -34 -16 -35 -16 -68 12 -64 54 -124 67 -187 40z"/>
<path d="M7120 14330 c0 -19 7 -20 220 -20 213 0 220 1 220 20 0 19 -7 20
-220 20 -213 0 -220 -1 -220 -20z"/>
<path d="M7110 14180 c0 -19 7 -20 220 -20 213 0 220 1 220 20 0 19 -7 20
-220 20 -213 0 -220 -1 -220 -20z"/>
<path d="M12962 13948 c-6 -6 -12 -26 -11 -42 l1 -31 14 34 c17 38 15 58 -4
39z"/>
<path d="M9382 13873 c59 -2 158 -2 220 0 62 1 14 3 -107 3 -121 0 -172 -2
-113 -3z"/>
<path d="M12877 13725 l-49 -55 36 -17 c22 -10 40 -13 45 -7 7 8 25 135 18
133 -1 0 -24 -25 -50 -54z"/>
<path d="M6146 13378 c-19 -165 -176 -2021 -172 -2026 4 -3 11 -1 17 5 5 5 48
450 95 989 46 538 88 991 92 1007 7 27 23 15 912 -679 498 -389 931 -726 963
-751 45 -35 57 -40 57 -26 -1 12 -325 271 -950 758 l-949 740 1151 5 c909 4
1152 8 1156 18 3 9 -238 12 -1181 12 l-1185 0 -6 -52z"/>
<path d="M9157 13423 c-20 -19 12 -23 207 -23 181 0 215 2 220 15 5 13 -22 15
-208 15 -117 0 -216 -3 -219 -7z"/>
<path d="M13210 13304 c0 -6 -16 -36 -35 -68 -19 -32 -35 -60 -35 -63 0 -6 67
-33 84 -33 12 0 13 14 9 78 -3 42 -9 81 -14 87 -6 5 -9 5 -9 -1z"/>
<path d="M4392 12939 c-52 -15 -66 -77 -25 -110 13 -11 18 -10 35 11 12 15 18
33 15 49 -3 17 2 30 17 42 24 21 11 23 -42 8z"/>
<path d="M4535 12741 c3 -35 5 -75 5 -89 0 -22 3 -24 32 -18 18 3 36 10 40 14
5 5 -7 35 -26 68 -57 96 -57 96 -51 25z"/>
<path d="M4320 12617 c0 -36 123 -97 164 -81 25 9 8 24 -27 24 -29 0 -55 13
-114 56 -21 15 -23 15 -23 1z"/>
<path d="M8993 12026 c-236 -163 -283 -200 -269 -213 8 -9 524 353 530 372 3
10 4 20 3 20 -1 1 -120 -80 -264 -179z"/>
<path d="M3367 12114 c-79 -19 -101 -32 -147 -88 -89 -107 -131 -236 -164
-494 -22 -174 -22 -182 10 -182 41 0 221 -64 339 -119 l106 -50 -1 -166 c-1
-92 0 -168 2 -170 4 -4 420 -46 648 -65 63 -6 127 -13 142 -16 24 -5 33 3 97
88 l70 93 83 23 c97 26 111 27 131 7 23 -22 60 -142 53 -170 -12 -49 -229
-174 -301 -175 -51 0 -300 -43 -306 -53 -4 -6 -8 -6 -10 0 -3 7 -39 5 -99 -3
-144 -20 -405 -44 -482 -44 l-68 0 0 -117 c0 -65 -3 -154 -6 -199 l-7 -80 139
-3 c76 -1 141 -4 143 -6 2 -2 0 -32 -3 -67 l-7 -63 -149 3 -148 3 -43 -46
c-197 -214 -360 -504 -421 -751 -34 -139 -31 -310 9 -474 112 -453 167 -915
162 -1339 l-3 -193 134 -34 c207 -51 522 -100 770 -119 l85 -6 -3 -57 c-1 -31
-7 -110 -12 -174 l-10 -118 40 -88 40 -89 -15 -209 c-51 -701 -18 -1627 87
-2402 l22 -163 125 3 126 3 7 64 c109 991 196 2017 216 2556 7 187 0 545 -12
667 l-6 63 47 30 c33 20 55 44 70 75 l23 45 -120 600 c-203 1022 -216 1104
-227 1440 -5 172 8 537 24 651 l6 44 -80 0 -80 0 8 48 c4 26 8 53 8 60 1 10
20 13 79 11 93 -3 86 -12 127 170 l30 131 137 0 c136 0 138 0 138 23 0 18 22
254 67 739 l5 57 87 69 c47 39 99 84 115 101 l29 30 -56 68 c-92 112 -222 229
-352 315 -66 44 -246 141 -250 136 -1 -2 -7 -41 -14 -87 -7 -46 -26 -122 -43
-170 -33 -94 -84 -201 -96 -201 -4 0 -17 24 -30 53 -21 48 -84 127 -101 127
-4 0 -17 -33 -30 -73 -31 -102 -32 -103 -72 -87 -120 50 -412 359 -527 557
-28 48 -42 62 -65 67 -49 10 -159 5 -220 -10z m749 -1634 l-6 -80 103 0 103 0
-8 -102 c-4 -57 -10 -122 -13 -145 -6 -41 -5 -43 21 -43 l27 0 -7 -62 c-4 -35
-9 -64 -10 -66 -2 -1 -123 1 -269 4 l-267 7 6 41 c12 89 10 86 63 86 l49 0 74
153 c41 83 88 182 103 220 15 37 30 67 33 67 3 0 2 -36 -2 -80z"/>
<path d="M16850 11689 c-52 -39 -107 -82 -121 -95 l-26 -25 -58 36 c-118 71
-245 102 -377 92 -414 -32 -686 -447 -551 -839 37 -106 86 -181 174 -261 194
-180 468 -216 717 -95 97 47 225 177 275 279 114 233 76 515 -97 706 -31 33
-56 64 -56 66 0 3 52 45 115 92 78 59 112 90 108 100 -3 8 -6 15 -7 15 -1 0
-44 -32 -96 -71z m-370 -45 c49 -14 141 -57 179 -82 11 -8 -7 -33 -79 -113
-155 -175 -288 -393 -355 -582 -15 -43 -31 -80 -35 -82 -4 -3 -64 69 -132 160
-88 114 -128 161 -136 153 -7 -7 32 -67 131 -199 78 -103 144 -188 147 -188 3
-1 20 44 38 99 57 172 164 371 281 520 52 67 174 190 187 190 23 0 105 -105
145 -185 102 -206 89 -413 -38 -606 -73 -112 -175 -190 -308 -234 -222 -75
-450 -21 -615 144 -190 191 -232 452 -111 696 84 168 225 277 416 321 73 17
207 11 285 -12z"/>
<path d="M8636 11493 c-3 -4 -6 -10 -6 -14 0 -8 345 -279 354 -279 4 0 6 6 6
13 0 15 -346 288 -354 280z"/>
<path d="M6905 10591 c-566 -390 -1031 -708 -1032 -707 -1 1 22 276 52 611 29
336 51 612 49 614 -3 3 -10 -2 -18 -10 -9 -10 -28 -197 -65 -624 -28 -335 -52
-618 -51 -628 0 -16 46 -17 857 -15 807 3 858 4 861 20 3 17 -43 18 -821 20
l-824 3 1013 695 c864 593 1058 733 1016 730 -4 -1 -470 -320 -1037 -709z"/>
<path d="M8196 9854 c-3 -9 -6 -18 -6 -20 0 -2 96 -4 214 -4 186 0 215 2 220
16 3 9 6 18 6 20 0 2 -96 4 -214 4 -186 0 -215 -2 -220 -16z"/>
<path d="M8196 9495 c-178 -63 -163 -326 21 -342 60 -5 123 25 167 80 28 35
31 45 31 112 0 68 -2 76 -30 106 -54 57 -114 71 -189 44z"/>
<path d="M7414 9421 c-29 -44 -43 -126 -27 -155 7 -13 16 7 37 85 15 56 25
103 22 106 -2 3 -17 -14 -32 -36z"/>
<path d="M7640 7780 c0 -6 52 -10 135 -10 l136 0 -6 -47 c-8 -66 -65 -733 -65
-757 0 -11 2 -17 6 -14 5 6 73 746 74 806 l0 32 -140 0 c-87 0 -140 -4 -140
-10z"/>
<path d="M10350 7780 c0 -6 113 -10 320 -10 l321 0 -7 -62 c-3 -35 -54 -612
-113 -1283 l-106 -1220 -550 -3 c-349 -1 -553 -6 -559 -12 -7 -7 178 -9 554
-8 l565 3 112 1275 c61 701 112 1287 112 1303 l1 27 -325 0 c-210 0 -325 -4
-325 -10z"/>
<path d="M5322 6737 c-40 -463 -73 -845 -72 -849 0 -5 279 -8 619 -8 555 0
619 2 625 16 3 9 6 17 6 20 0 2 -264 5 -587 6 l-588 3 571 393 c315 215 576
392 582 392 5 0 50 -31 100 -70 50 -38 93 -70 96 -70 3 0 6 6 6 13 0 7 -38 42
-85 77 -46 36 -85 68 -85 72 0 4 58 47 129 95 71 48 132 96 134 106 3 9 3 17
0 17 -2 0 -67 -43 -144 -96 -77 -52 -146 -94 -153 -92 -8 2 -239 179 -514 393
l-499 390 737 3 c644 2 739 4 744 17 5 13 -87 15 -772 15 l-777 0 -73 -843z
m608 408 c267 -207 493 -385 503 -395 18 -17 -2 -32 -564 -418 -321 -220 -584
-400 -585 -399 -1 1 29 351 67 777 38 426 69 788 69 804 0 21 3 26 13 19 6 -6
230 -180 497 -388z"/>
<path d="M7580 7566 c0 -8 12 -16 27 -18 l27 -3 -37 -25 c-20 -13 -38 -33 -41
-42 -6 -25 -1 -23 56 18 27 20 52 34 55 31 8 -8 -128 -1570 -138 -1581 -4 -4
-76 45 -159 110 -84 66 -155 118 -159 117 -21 -6 5 -32 136 -134 l148 -114
-180 -5 c-161 -4 -180 -7 -183 -22 -3 -17 12 -18 212 -18 l215 0 5 43 c4 23
35 382 71 797 36 415 68 779 71 808 l6 52 -66 0 c-51 0 -66 -3 -66 -14z"/>
<path d="M10297 7573 c-20 -19 11 -23 204 -25 l211 -3 -260 -179 c-146 -100
-262 -187 -265 -197 -6 -24 -31 -39 286 179 148 101 271 182 273 179 5 -4
-118 -1457 -131 -1554 l-6 -42 -290 227 c-378 296 -339 268 -339 245 1 -12
104 -98 297 -248 l295 -230 -358 -3 c-355 -2 -373 -4 -374 -34 0 -5 180 -8
399 -8 l399 0 6 58 c4 31 35 397 71 812 36 415 67 772 70 793 l5 37 -243 0
c-134 0 -247 -3 -250 -7z"/>
<path d="M6030 5722 c-64 -32 -64 -115 -1 -142 81 -33 153 80 87 137 -32 28
-41 28 -86 5z"/>
<path d="M6355 5726 c-29 -13 -55 -51 -55 -81 0 -19 41 -62 66 -70 31 -8 48
13 64 80 13 54 13 58 -5 71 -23 17 -31 17 -70 0z"/>
<path d="M9782 5662 c-12 -42 -18 -80 -13 -85 4 -4 19 -4 32 1 72 28 83 117
19 152 -15 8 -20 -2 -38 -68z"/>
<path d="M6940 5190 c0 -6 78 -10 215 -10 137 0 215 4 215 10 0 6 -78 10 -215
10 -137 0 -215 -4 -215 -10z"/>
<path d="M15667 4021 l-139 -14 7 -36 c4 -20 10 -40 15 -45 9 -9 265 6 276 16
3 4 0 26 -8 50 l-13 43 -138 -14z"/>
<path d="M13430 3950 l0 -40 145 0 145 0 0 40 0 40 -145 0 -145 0 0 -40z"/>
<path d="M3280 3832 c-18 -4 -170 -256 -170 -282 0 -9 6 -22 13 -28 6 -5 109
-41 227 -79 118 -39 260 -88 315 -111 173 -69 216 -73 272 -20 38 36 29 52
-60 111 -97 65 -175 144 -210 213 -28 56 -47 75 -97 97 -70 32 -275 102 -290
99z"/>
<path d="M15950 3776 c-5 -14 -7 -40 -4 -58 l6 -34 -172 4 c-106 3 -175 1
-182 -6 -5 -5 -25 -76 -43 -157 -25 -107 -31 -153 -24 -167 9 -17 27 -18 247
-18 130 0 290 -5 354 -10 147 -12 206 -2 243 42 32 38 33 75 3 87 -13 5 -68
23 -123 40 -89 27 -149 57 -210 106 -19 15 -18 16 13 45 20 18 32 38 31 52 -1
20 -2 21 -6 3 -7 -29 -43 -65 -65 -65 -31 0 -18 41 21 67 19 13 29 23 24 23
-6 0 -22 -9 -35 -20 -14 -10 -28 -16 -32 -13 -3 3 -6 -2 -6 -11 0 -10 -6 -16
-12 -13 -9 2 -13 25 -13 65 0 34 -1 62 -3 62 -1 0 -7 -11 -12 -24z"/>
<path d="M16002 3750 c0 -19 2 -27 5 -17 2 9 2 25 0 35 -3 9 -5 1 -5 -18z"/>
<path d="M4208 3728 c-12 -9 -28 -57 -48 -143 -35 -151 -37 -181 -12 -193 9
-5 182 -12 384 -14 337 -5 370 -4 407 12 45 21 64 49 59 87 -3 25 -11 29 -101
55 -125 36 -196 73 -275 142 l-63 56 -147 0 c-81 0 -156 3 -167 6 -11 3 -28
-1 -37 -8z"/>
<path d="M13369 3693 c40 -60 19 -91 -64 -94 -46 -1 -47 -2 -15 -8 l35 -6 -70
-36 c-83 -43 -165 -71 -295 -99 -52 -12 -100 -26 -107 -32 -34 -28 12 -100 74
-114 21 -5 235 -8 475 -6 l438 3 6 23 c5 21 -49 293 -62 305 -3 3 -91 6 -195
6 -171 0 -189 2 -189 17 0 9 -12 30 -26 45 l-26 28 21 -32z"/>
<path d="M13333 3645 c0 -8 4 -12 8 -9 4 2 9 -2 12 -8 2 -7 7 -10 11 -7 3 3
-2 13 -12 22 -15 14 -19 15 -19 2z"/>
<path d="M13233 3634 c-3 -8 -2 -19 3 -24 5 -5 9 1 9 16 0 28 -3 30 -12 8z"/>
</g>
</svg>
