<?xml version="1.0" standalone="no"?>
<!DOCTYPE svg PUBLIC "-//W3C//DTD SVG 20010904//EN"
 "http://www.w3.org/TR/2001/REC-SVG-20010904/DTD/svg10.dtd">
<svg version="1.0" xmlns="http://www.w3.org/2000/svg"
 width="2000.000000pt" height="2000.000000pt" viewBox="0 0 2000.000000 2000.000000"
 preserveAspectRatio="xMidYMid meet">

<g transform="translate(0.000000,2000.000000) scale(0.100000,-0.100000)"
fill="#000000" stroke="none">
<path d="M6253 17493 c-190 -207 -401 -488 -589 -786 -43 -69 -80 -124 -81
-123 -4 4 -72 317 -84 386 -13 80 -29 115 -29 63 0 -57 41 -275 71 -376 l30
-99 -61 -104 c-33 -57 -97 -175 -142 -261 -45 -87 -91 -171 -102 -188 -11 -16
-22 -37 -23 -47 -2 -10 -23 -59 -48 -108 -36 -71 -184 -399 -223 -493 -13 -33
-134 290 -213 573 -45 158 -61 194 -47 103 26 -171 120 -448 213 -634 l35 -70
-26 -62 c-105 -247 -300 -811 -354 -1022 -16 -60 -53 -207 -84 -325 -62 -239
-95 -389 -132 -590 -14 -74 -27 -143 -30 -152 -5 -16 -19 -18 -105 -18 -54 0
-99 3 -99 8 0 12 -77 478 -95 577 -9 50 -37 186 -61 302 l-45 213 27 42 c33
52 188 366 203 411 23 67 -20 -7 -127 -222 l-107 -213 -22 98 c-12 55 -55 231
-94 392 l-71 292 21 63 c27 82 108 429 115 492 l6 50 -20 -60 c-25 -74 -105
-402 -116 -470 -9 -65 -9 -66 -89 240 -116 442 -227 840 -237 850 -7 7 -8 3
-5 -10 63 -224 418 -1647 413 -1652 -2 -2 -27 7 -54 21 -86 44 -430 177 -451
176 -24 -2 310 -147 449 -195 l65 -22 47 -209 c88 -387 200 -948 223 -1121 l7
-51 -59 -7 c-124 -14 -111 -21 -153 82 -178 433 -484 777 -995 1120 -117 78
-269 165 -430 246 -106 53 -136 73 -163 108 -51 67 -164 191 -169 185 -7 -7
31 -61 99 -138 33 -38 57 -68 55 -68 -2 0 -38 15 -78 34 -94 42 -295 116 -424
156 -159 49 -478 127 -498 122 -5 -2 -6 1 -3 6 8 13 -82 101 -168 166 -83 62
-194 131 -201 124 -3 -2 35 -33 82 -69 138 -101 275 -211 270 -216 -3 -2 -67
5 -143 16 -165 24 -387 41 -499 40 -71 -2 -66 -3 45 -10 330 -21 578 -59 854
-129 88 -22 161 -42 163 -44 2 -2 -99 -6 -224 -9 -275 -7 -521 -39 -758 -98
-108 -27 -119 -42 -14 -19 293 63 526 90 834 97 l250 5 152 -55 c170 -62 394
-157 523 -222 103 -52 233 -128 205 -121 -42 11 -193 26 -263 26 -107 0 -252
-18 -356 -45 -103 -26 -252 -81 -262 -97 -4 -7 0 -6 14 1 39 21 240 72 359 91
222 36 527 22 613 -28 103 -59 346 -231 440 -311 310 -263 477 -461 607 -718
61 -120 108 -231 101 -239 -3 -3 -57 -16 -119 -30 -251 -56 -490 -181 -566
-295 -22 -33 -23 -41 -13 -71 10 -31 356 -1571 395 -1762 l19 -89 90 -42 c184
-86 323 -118 506 -119 174 0 338 40 499 122 l75 38 68 305 c37 167 70 318 73
334 3 17 65 296 139 620 127 561 132 592 119 625 -31 78 -174 185 -332 251
-42 17 -78 33 -79 34 -12 11 358 503 518 691 18 21 66 46 170 88 354 144 954
405 947 413 -8 8 -677 -268 -1000 -412 -33 -14 -57 -21 -55 -16 4 12 335 399
522 610 l136 154 152 64 c84 36 257 107 383 159 127 51 223 93 214 94 -45 1
-460 -159 -611 -236 -27 -14 -61 -29 -76 -35 l-26 -10 19 23 c33 37 288 320
487 540 l188 207 178 69 c97 38 234 88 304 112 139 45 176 67 76 44 -118 -27
-292 -91 -497 -181 -29 -12 -22 -1 59 89 88 99 381 436 424 488 l20 25 -26
-25 c-14 -14 -135 -147 -269 -296 -134 -148 -379 -418 -545 -600 -535 -585
-917 -1019 -1181 -1344 -170 -209 -317 -404 -456 -605 -38 -55 -71 -101 -72
-103 -2 -2 -33 6 -69 17 -83 26 -265 61 -315 61 -21 0 -40 2 -43 5 -6 6 58
338 101 525 73 313 242 867 378 1235 l44 120 117 49 c232 97 814 395 861 441
8 8 -205 -96 -473 -231 -269 -134 -491 -243 -493 -240 -10 10 207 517 340 796
l64 135 169 74 c354 156 904 415 904 425 0 10 -432 -179 -740 -324 -96 -45
-208 -97 -247 -116 l-73 -33 36 71 c111 220 312 562 476 808 l93 139 55 16
c154 44 618 214 586 215 -26 1 -391 -121 -545 -182 -40 -16 -75 -27 -77 -26
-2 2 54 79 125 170 109 143 185 234 300 361 14 15 22 27 19 27 -4 0 -55 -53
-115 -117z m-2495 -5877 c35 -14 91 -44 125 -67 34 -23 94 -64 132 -90 178
-121 278 -115 530 27 143 81 243 111 325 97 42 -7 39 -8 -43 -14 -82 -6 -95
-10 -200 -64 -315 -164 -280 -150 -381 -150 -112 0 -151 17 -308 129 -144 103
-223 139 -308 140 -42 0 -77 -6 -99 -17 -19 -9 -36 -15 -39 -12 -3 2 15 14 39
25 62 28 149 26 227 -4z m-12 -96 c62 -21 107 -47 252 -146 110 -76 182 -104
263 -104 78 0 145 25 293 108 66 37 139 76 161 86 46 21 140 32 172 19 15 -5
0 -8 -50 -8 -79 -1 -102 -10 -307 -130 -133 -77 -190 -98 -275 -98 -94 -1
-162 28 -306 130 -132 93 -177 117 -256 138 -61 16 -108 12 -158 -12 -38 -19
-20 1 20 21 41 22 120 20 191 -4z m496 3 c24 -22 23 -39 -6 -58 -34 -23 -69
-5 -64 32 2 15 9 28 16 31 8 2 11 -5 10 -19 -2 -15 3 -24 15 -27 20 -4 24 27
5 46 -18 18 3 14 24 -5z m-569 -117 c-6 -27 7 -39 27 -26 12 8 13 13 2 30 -10
17 -10 20 3 20 20 0 31 -46 15 -65 -15 -18 -42 -19 -58 -3 -13 13 -16 50 -5
61 13 14 20 6 16 -17z m1074 -63 c-1 -19 3 -28 13 -28 10 0 14 9 13 27 -1 20
2 25 13 21 10 -4 14 -16 12 -37 -2 -24 -8 -32 -26 -34 -42 -6 -69 37 -40 66
16 16 17 16 15 -15z"/>
<path d="M8385 16607 c-124 -41 -213 -130 -244 -242 -13 -45 -193 -1926 -189
-1965 2 -14 22 178 46 425 109 1151 143 1493 153 1530 37 139 174 245 318 245
51 0 1389 -248 7956 -1475 377 -71 395 -77 472 -157 96 -98 108 -181 64 -428
-28 -151 -431 -2435 -808 -4575 l-118 -670 -756 -1330 c-864 -1520 -877 -1543
-926 -1591 -78 -78 -209 -110 -328 -81 -33 8 -163 47 -290 87 -126 39 -736
231 -1355 425 -619 194 -2376 745 -3905 1225 -1529 479 -2883 905 -3010 945
-260 84 -306 110 -362 205 -18 30 -33 50 -33 44 0 -18 56 -98 94 -133 20 -19
36 -42 36 -51 0 -59 96 -177 177 -218 21 -11 2009 -640 4418 -1398 4347 -1367
4381 -1378 4465 -1378 77 -1 92 2 152 32 41 20 82 50 104 75 20 23 403 687
851 1476 l814 1434 294 1666 c161 916 375 2130 475 2696 100 567 184 1071 187
1120 6 106 -18 225 -62 300 -40 68 -124 138 -227 189 l-93 47 -1015 190
c-3088 577 -7212 1342 -7260 1345 -30 2 -73 -2 -95 -9z"/>
<path d="M8450 16119 c0 -12 -29 -359 -65 -773 -36 -413 -64 -762 -63 -776 2
-14 25 225 52 530 98 1110 89 1025 111 1022 21 -3 2674 -532 4770 -952 688
-137 1354 -270 1480 -295 127 -24 587 -115 1022 -201 766 -151 793 -157 788
-178 -5 -20 -302 -1622 -559 -3021 -63 -341 -162 -883 -221 -1205 -58 -322
-109 -592 -113 -601 -6 -14 -139 18 -1022 246 -3083 797 -3932 1016 -3936
1012 -2 -2 1109 -293 2469 -646 1359 -353 2479 -644 2488 -647 14 -4 20 11 34
88 29 164 510 2769 701 3802 101 549 182 1001 179 1004 -6 7 -8071 1612 -8097
1612 -12 0 -18 -8 -18 -21z"/>
<path d="M3231 15705 c15 -43 109 -180 168 -247 51 -56 147 -138 206 -173 17
-10 -21 31 -84 91 -63 60 -148 154 -188 209 -41 55 -83 111 -93 125 l-20 25
11 -30z"/>
<path d="M9215 15470 c-132 -21 -222 -68 -311 -163 -94 -99 -138 -194 -164
-357 -12 -69 -28 -146 -36 -171 -16 -51 -68 -105 -156 -162 -126 -81 -151
-243 -64 -416 36 -70 123 -160 195 -201 33 -19 63 -43 67 -53 3 -10 0 -56 -7
-103 -11 -75 -10 -86 4 -102 9 -10 69 -47 134 -82 78 -44 136 -84 175 -122 52
-51 67 -62 88 -60 3 0 0 -56 -8 -126 -17 -160 -11 -262 17 -324 56 -123 200
-223 336 -235 159 -13 315 67 379 195 30 62 31 63 61 302 14 112 27 205 28
206 1 1 34 -1 72 -5 81 -9 180 1 251 25 242 82 384 279 384 534 0 137 -30 211
-135 337 -86 103 -104 142 -116 255 -26 248 -61 340 -174 453 -238 237 -398
325 -591 325 -48 0 -85 7 -129 24 -71 29 -205 40 -300 26z m-279 -676 c-11
-80 -22 -141 -24 -135 -4 11 25 243 33 269 12 35 9 -2 -9 -134z m111 100 c-3
-3 -12 -4 -19 -1 -8 3 -5 6 6 6 11 1 17 -2 13 -5z m46 -11 c-7 -2 -19 -2 -25
0 -7 3 -2 5 12 5 14 0 19 -2 13 -5z m54 -9 c-3 -3 -12 -4 -19 -1 -8 3 -5 6 6
6 11 1 17 -2 13 -5z m94 -25 c-5 -13 -10 -19 -10 -12 -1 15 10 45 15 40 3 -2
0 -15 -5 -28z m508 -88 c-6 -18 -13 -30 -15 -28 -2 2 1 18 7 36 6 18 13 30 15
28 2 -2 -1 -18 -7 -36z m-226 22 c-13 -2 -33 -2 -45 0 -13 2 -3 4 22 4 25 0
35 -2 23 -4z m-440 -10 c-7 -2 -19 -2 -25 0 -7 3 -2 5 12 5 14 0 19 -2 13 -5z
m530 0 c-7 -2 -19 -2 -25 0 -7 3 -2 5 12 5 14 0 19 -2 13 -5z m-538 -23 c13
-6 15 -9 5 -9 -8 0 -22 4 -30 9 -18 12 -2 12 25 0z m435 -24 c0 -3 -4 -8 -10
-11 -5 -3 -10 -1 -10 4 0 6 5 11 10 11 6 0 10 -2 10 -4z m165 -56 c3 -6 -1 -7
-9 -4 -18 7 -21 14 -7 14 6 0 13 -4 16 -10z m-682 -7 c-7 -2 -19 -2 -25 0 -7
3 -2 5 12 5 14 0 19 -2 13 -5z m-86 -85 c-2 -13 -4 -3 -4 22 0 25 2 35 4 23 2
-13 2 -33 0 -45z m406 27 c-3 -9 -8 -14 -10 -11 -3 3 -2 9 2 15 9 16 15 13 8
-4z m-416 -117 c-2 -13 -4 -3 -4 22 0 25 2 35 4 23 2 -13 2 -33 0 -45z m-10
-105 c-2 -16 -4 -3 -4 27 0 30 2 43 4 28 2 -16 2 -40 0 -55z m321 2 c-12 -24
-23 -43 -26 -41 -4 5 36 86 43 86 3 0 -5 -20 -17 -45z m-331 -277 c-1 -46 -3
-11 -3 77 0 88 2 125 3 83 2 -42 2 -114 0 -160z m320 136 c-3 -3 -12 -4 -19
-1 -8 3 -5 6 6 6 11 1 17 -2 13 -5z m73 -187 c13 -5 13 -6 -1 -6 -8 -1 -24 6
-35 15 -19 15 -19 15 1 6 11 -5 27 -12 35 -15z m111 -28 c-28 -23 -60 -24 -87
-3 -18 15 -18 15 3 5 32 -16 61 -13 81 7 9 10 19 17 22 14 3 -2 -6 -12 -19
-23z m-494 -41 c-3 -7 -5 -2 -5 12 0 14 2 19 5 13 2 -7 2 -19 0 -25z m53 -131
c6 -11 9 -21 6 -24 -6 -7 -44 77 -51 115 -3 15 3 5 14 -23 11 -27 25 -58 31
-68z m79 -108 c43 -51 36 -50 -14 1 -21 22 -35 40 -30 39 6 0 25 -18 44 -40z
m631 -24 c0 -8 -73 -36 -84 -32 -8 3 31 20 82 36 1 1 2 -1 2 -4z m-133 -51
c-3 -3 -12 -4 -19 -1 -8 3 -5 6 6 6 11 1 17 -2 13 -5z m-44 -11 c-7 -2 -19 -2
-25 0 -7 3 -2 5 12 5 14 0 19 -2 13 -5z m-80 -10 c-7 -2 -19 -2 -25 0 -7 3 -2
5 12 5 14 0 19 -2 13 -5z m-140 -10 c-7 -2 -19 -2 -25 0 -7 3 -2 5 12 5 14 0
19 -2 13 -5z m65 0 c-10 -2 -26 -2 -35 0 -10 3 -2 5 17 5 19 0 27 -2 18 -5z
m-81 -89 c-3 -3 -12 -4 -19 -1 -8 3 -5 6 6 6 11 1 17 -2 13 -5z m106 -1 c-13
-2 -33 -2 -45 0 -13 2 -3 4 22 4 25 0 35 -2 23 -4z"/>
<path d="M8313 14490 c0 -30 2 -43 4 -27 2 15 2 39 0 55 -2 15 -4 2 -4 -28z"/>
<path d="M8303 14380 c0 -30 2 -43 4 -27 2 15 2 39 0 55 -2 15 -4 2 -4 -28z"/>
<path d="M15796 14411 c26 -11 262 -58 329 -65 43 -5 46 -4 20 4 -75 25 -397
81 -349 61z"/>
<path d="M7943 14325 c0 -27 2 -38 4 -22 2 15 2 37 0 50 -2 12 -4 0 -4 -28z"/>
<path d="M8293 14260 c0 -30 2 -43 4 -27 2 15 2 39 0 55 -2 15 -4 2 -4 -28z"/>
<path d="M15781 14305 c7 -6 244 -52 304 -59 l50 -5 -50 14 c-94 28 -318 65
-304 50z"/>
<path d="M7933 14220 c0 -30 2 -43 4 -27 2 15 2 39 0 55 -2 15 -4 2 -4 -28z"/>
<path d="M15775 14199 c55 -17 272 -59 301 -58 26 0 27 1 8 9 -28 11 -291 60
-318 59 -16 -1 -14 -3 9 -10z"/>
<path d="M8283 14150 c0 -30 2 -43 4 -27 2 15 2 39 0 55 -2 15 -4 2 -4 -28z"/>
<path d="M7923 14115 c0 -27 2 -38 4 -22 2 15 2 37 0 50 -2 12 -4 0 -4 -28z"/>
<path d="M8273 14035 c0 -27 2 -38 4 -22 2 15 2 37 0 50 -2 12 -4 0 -4 -28z"/>
<path d="M7913 14010 c0 -25 2 -35 4 -22 2 12 2 32 0 45 -2 12 -4 2 -4 -23z"/>
<path d="M8263 13925 c0 -27 2 -38 4 -22 2 15 2 37 0 50 -2 12 -4 0 -4 -28z"/>
<path d="M7903 13905 c0 -27 2 -38 4 -22 2 15 2 37 0 50 -2 12 -4 0 -4 -28z"/>
<path d="M11565 13940 c-4 -6 8 -84 25 -175 32 -166 34 -205 14 -212 -10 -3
-27 30 -118 230 -19 42 -39 77 -45 77 -26 0 -21 -53 18 -175 23 -70 41 -138
41 -151 0 -13 -9 -47 -21 -76 -18 -46 -20 -65 -14 -153 6 -84 -5 -217 -64
-818 -39 -395 -69 -722 -66 -728 3 -5 1 -17 -4 -26 -9 -16 -10 -15 -11 8 0 19
-64 127 -94 156 -5 5 -519 -393 -523 -406 -5 -10 387 -431 444 -477 66 -54
148 -85 244 -91 139 -10 257 36 354 138 77 81 114 162 126 281 13 132 28 2146
17 2211 -5 29 -17 60 -25 70 -19 20 -49 23 -57 5 -3 -9 -8 -8 -16 5 -17 26
-58 22 -72 -8 -10 -22 -14 -12 -43 103 -18 71 -42 150 -53 175 -20 44 -43 59
-57 37z m245 -391 c0 -16 -4 -28 -9 -25 -8 5 -3 56 5 56 2 0 4 -14 4 -31z
m-118 -47 c-6 -2 -9 -8 -6 -14 4 -6 -2 -6 -14 1 -25 13 -35 14 -27 2 3 -5 1
-12 -4 -15 -7 -4 -8 23 -2 30 1 0 16 1 34 1 17 0 26 -2 19 -5z m187 -42 c0
-10 -3 -8 -9 5 -12 27 -12 43 0 25 5 -8 9 -22 9 -30z m-262 15 c0 -8 -14 -27
-31 -42 l-31 -28 29 33 c17 17 26 32 22 32 -4 0 -4 5 -1 10 9 14 12 13 12 -5z
m90 -17 c-3 -8 -6 -5 -6 6 -1 11 2 17 5 13 3 -3 4 -12 1 -19z m91 -24 c-3 -27
-4 -26 -9 8 -3 22 -1 34 4 29 5 -5 7 -21 5 -37z m-91 -16 c2 -17 0 -19 -7 -8
-5 8 -6 18 -4 22 8 12 10 10 11 -14z m-170 -1 c6 -7 14 -37 9 -37 -1 0 -13 11
-25 24 -17 18 -19 24 -7 22 8 -1 19 -5 23 -9z m326 -12 c-3 -9 -8 -14 -10 -11
-3 3 -2 9 2 15 9 16 15 13 8 -4z m-57 -46 c19 -22 19 -22 -3 -8 -13 8 -23 17
-23 21 0 12 6 9 26 -13z m-35 -32 c-10 -9 -11 -8 -5 6 3 10 9 15 12 12 3 -3 0
-11 -7 -18z m-111 -17 c8 -5 11 -10 5 -10 -5 0 -17 5 -25 10 -8 5 -10 10 -5
10 6 0 17 -5 25 -10z m-46 -9 c3 -4 -4 -17 -16 -27 -13 -12 -18 -13 -12 -4 5
8 9 18 10 23 3 15 4 17 8 17 3 0 7 -4 10 -9z m102 -9 c-3 -5 8 -21 23 -36 21
-20 30 -24 34 -14 3 7 4 3 4 -9 -1 -21 -4 -21 -39 14 -32 31 -41 53 -22 53 3
0 3 -4 0 -8z m-375 -1613 c-5 -13 -10 -19 -10 -12 -1 15 10 45 15 40 3 -2 0
-15 -5 -28z m30 -116 c-12 -20 -14 -14 -5 12 4 9 9 14 11 11 3 -2 0 -13 -6
-23z m22 -40 c5 -26 4 -26 -9 -9 -7 10 -11 23 -8 27 8 14 11 11 17 -18z"/>
<path d="M8253 13810 c0 -25 2 -35 4 -22 2 12 2 32 0 45 -2 12 -4 2 -4 -23z"/>
<path d="M7893 13800 c0 -25 2 -35 4 -22 2 12 2 32 0 45 -2 12 -4 2 -4 -23z"/>
<path d="M7883 13695 c0 -27 2 -38 4 -22 2 15 2 37 0 50 -2 12 -4 0 -4 -28z"/>
<path d="M8243 13700 c0 -25 2 -35 4 -22 2 12 2 32 0 45 -2 12 -4 2 -4 -23z"/>
<path d="M7873 13590 c0 -25 2 -35 4 -22 2 12 2 32 0 45 -2 12 -4 2 -4 -23z"/>
<path d="M8233 13580 c0 -25 2 -35 4 -22 2 12 2 32 0 45 -2 12 -4 2 -4 -23z"/>
<path d="M7863 13485 c0 -22 2 -30 4 -17 2 12 2 30 0 40 -3 9 -5 -1 -4 -23z"/>
<path d="M8223 13470 c0 -25 2 -35 4 -22 2 12 2 32 0 45 -2 12 -4 2 -4 -23z"/>
<path d="M12361 13506 c16 -16 3190 -731 3212 -723 18 6 -1715 402 -2897 661
-290 64 -324 71 -315 62z"/>
<path d="M7853 13380 c0 -25 2 -35 4 -22 2 12 2 32 0 45 -2 12 -4 2 -4 -23z"/>
<path d="M8213 13360 c0 -25 2 -35 4 -22 2 12 2 32 0 45 -2 12 -4 2 -4 -23z"/>
<path d="M7843 13275 c0 -22 2 -30 4 -17 2 12 2 30 0 40 -3 9 -5 -1 -4 -23z"/>
<path d="M8190 13115 c-7 -91 -10 -168 -8 -171 3 -2 11 70 18 161 7 91 11 167
8 170 -3 3 -11 -69 -18 -160z"/>
<path d="M7833 13170 c0 -25 2 -35 4 -22 2 12 2 32 0 45 -2 12 -4 2 -4 -23z"/>
<path d="M13108 13193 c7 -3 16 -2 19 1 4 3 -2 6 -13 5 -11 0 -14 -3 -6 -6z"/>
<path d="M13185 13174 c181 -50 1418 -335 1447 -333 21 1 -103 33 -507 128
-652 155 -1139 261 -940 205z"/>
<path d="M7823 13060 c0 -25 2 -35 4 -22 2 12 2 32 0 45 -2 12 -4 2 -4 -23z"/>
<path d="M7813 12950 c0 -25 2 -35 4 -22 2 12 2 32 0 45 -2 12 -4 2 -4 -23z"/>
<path d="M8161 12769 c-7 -88 -11 -162 -8 -165 2 -3 10 68 17 156 7 88 11 162
9 165 -3 2 -11 -68 -18 -156z"/>
<path d="M7803 12845 c0 -22 2 -30 4 -17 2 12 2 30 0 40 -3 9 -5 -1 -4 -23z"/>
<path d="M14658 12833 c7 -3 16 -2 19 1 4 3 -2 6 -13 5 -11 0 -14 -3 -6 -6z"/>
<path d="M15610 12770 c14 -4 34 -8 45 -8 16 0 15 2 -5 8 -14 4 -34 8 -45 8
-16 0 -15 -2 5 -8z"/>
<path d="M7792 12740 c0 -19 2 -27 5 -17 2 9 2 25 0 35 -3 9 -5 1 -5 -18z"/>
<path d="M15688 12753 c7 -3 16 -2 19 1 4 3 -2 6 -13 5 -11 0 -14 -3 -6 -6z"/>
<path d="M7782 12640 c0 -19 2 -27 5 -17 2 9 2 25 0 35 -3 9 -5 1 -5 -18z"/>
<path d="M8143 12530 c0 -30 2 -43 4 -27 2 15 2 39 0 55 -2 15 -4 2 -4 -28z"/>
<path d="M7772 12530 c0 -19 2 -27 5 -17 2 9 2 25 0 35 -3 9 -5 1 -5 -18z"/>
<path d="M7762 12435 c0 -16 2 -22 5 -12 2 9 2 23 0 30 -3 6 -5 -1 -5 -18z"/>
<path d="M8133 12415 c0 -27 2 -38 4 -22 2 15 2 37 0 50 -2 12 -4 0 -4 -28z"/>
<path d="M7752 12325 c0 -16 2 -22 5 -12 2 9 2 23 0 30 -3 6 -5 -1 -5 -18z"/>
<path d="M8123 12295 c0 -22 2 -30 4 -17 2 12 2 30 0 40 -3 9 -5 -1 -4 -23z"/>
<path d="M10370 12272 c0 -11 -26 -203 -35 -254 -2 -16 -1 -28 4 -28 10 0 16
40 31 184 6 55 8 101 5 104 -3 3 -5 0 -5 -6z"/>
<path d="M8112 12180 c0 -19 2 -27 5 -17 2 9 2 25 0 35 -3 9 -5 1 -5 -18z"/>
<path d="M8254 11919 c-99 -111 -180 -208 -182 -216 -4 -14 31 22 173 181 150
166 206 236 192 236 -3 0 -85 -91 -183 -201z"/>
<path d="M8102 12060 c0 -19 2 -27 5 -17 2 9 2 25 0 35 -3 9 -5 1 -5 -18z"/>
<path d="M8093 11945 c0 -22 2 -30 4 -17 2 12 2 30 0 40 -3 9 -5 -1 -4 -23z"/>
<path d="M10330 11972 c0 -4 -14 -86 -30 -181 -32 -182 -35 -239 -5 -99 47
222 57 288 44 288 -5 0 -9 -3 -9 -8z"/>
<path d="M12538 11943 c7 -3 16 -2 19 1 4 3 -2 6 -13 5 -11 0 -14 -3 -6 -6z"/>
<path d="M12575 11934 c59 -23 2268 -508 2287 -502 12 4 -136 39 -917 213
-943 210 -1426 312 -1370 289z"/>
<path d="M8082 11820 c0 -14 2 -19 5 -12 2 6 2 18 0 25 -3 6 -5 1 -5 -13z"/>
<path d="M12528 11753 c7 -3 16 -2 19 1 4 3 -2 6 -13 5 -11 0 -14 -3 -6 -6z"/>
<path d="M12561 11746 c16 -16 2270 -511 2292 -503 15 5 -1033 241 -1850 416
-402 87 -452 96 -442 87z"/>
<path d="M10261 11584 c0 -11 3 -14 6 -6 3 7 2 16 -1 19 -3 4 -6 -2 -5 -13z"/>
<path d="M8330 11541 c8 -5 31 -11 50 -15 24 -4 28 -3 15 2 -31 14 -83 24 -65
13z"/>
<path d="M8421 11516 c6 -6 1699 -446 1712 -445 28 1 -80 30 -866 234 -795
205 -856 220 -846 211z"/>
<path d="M14888 11423 c7 -3 16 -2 19 1 4 3 -2 6 -13 5 -11 0 -14 -3 -6 -6z"/>
<path d="M13245 11399 c103 -31 960 -220 992 -218 28 1 -25 15 -302 78 -452
103 -804 175 -690 140z"/>
<path d="M7800 11189 c-80 -61 -149 -114 -154 -119 -4 -4 14 -15 40 -24 27 -9
38 -13 24 -11 -100 20 -54 47 -550 -325 -250 -188 -546 -409 -658 -492 -112
-83 -201 -152 -198 -155 2 -2 91 -31 197 -62 l194 -58 197 149 c109 83 200
154 203 158 4 7 -77 36 -158 56 -15 3 -26 8 -23 11 2 3 48 -8 100 -23 66 -18
102 -24 115 -18 25 12 420 317 421 325 0 4 -21 12 -47 20 -26 7 -42 14 -37 16
5 2 31 -3 56 -11 l46 -13 206 164 c113 91 206 168 206 172 0 4 -54 23 -120 41
-66 18 -118 35 -116 37 2 3 61 -11 131 -31 l128 -35 148 121 c82 67 147 123
145 126 -6 5 -329 92 -341 91 -5 0 -75 -50 -155 -110z m-493 -505 c-3 -3 -12
-4 -19 -1 -8 3 -5 6 6 6 11 1 17 -2 13 -5z m70 -20 c-3 -3 -12 -4 -19 -1 -8 3
-5 6 6 6 11 1 17 -2 13 -5z m58 -14 c13 -5 14 -9 5 -9 -8 0 -24 4 -35 9 -13 5
-14 9 -5 9 8 0 24 -4 35 -9z m-638 -296 c-3 -3 -12 -4 -19 -1 -8 3 -5 6 6 6
11 1 17 -2 13 -5z m88 -24 c13 -5 14 -9 5 -9 -8 0 -24 4 -35 9 -13 5 -14 9 -5
9 8 0 24 -4 35 -9z"/>
<path d="M14878 11233 c7 -3 16 -2 19 1 4 3 -2 6 -13 5 -11 0 -14 -3 -6 -6z"/>
<path d="M8172 11079 c-79 -67 -142 -123 -140 -124 2 -1 121 -35 266 -74 l263
-72 150 123 c120 99 146 124 132 130 -25 11 -503 138 -517 138 -7 0 -76 -55
-154 -121z"/>
<path d="M10158 11063 c7 -3 16 -2 19 1 4 3 -2 6 -13 5 -11 0 -14 -3 -6 -6z"/>
<path d="M10225 11046 c22 -7 56 -16 75 -19 33 -6 33 -6 -5 7 -22 7 -56 16
-75 19 -33 6 -33 6 5 -7z"/>
<path d="M8726 10928 c-95 -84 -134 -123 -125 -128 8 -4 143 -42 300 -85 l286
-78 152 127 c87 72 147 128 139 131 -49 16 -582 155 -596 155 -9 -1 -79 -55
-156 -122z"/>
<path d="M10348 11013 c7 -3 16 -2 19 1 4 3 -2 6 -13 5 -11 0 -14 -3 -6 -6z"/>
<path d="M10388 11003 c7 -3 16 -2 19 1 4 3 -2 6 -13 5 -11 0 -14 -3 -6 -6z"/>
<path d="M10421 10996 c7 -7 211 -57 216 -53 2 2 -44 16 -101 31 -107 26 -123
29 -115 22z"/>
<path d="M7899 10853 c-62 -51 -156 -126 -206 -166 -51 -39 -89 -74 -85 -78 4
-3 125 -39 269 -79 l263 -72 122 103 c248 209 269 228 269 235 0 7 -68 27
-432 128 l-85 24 -115 -95z"/>
<path d="M10658 10933 c7 -3 16 -2 19 1 4 3 -2 6 -13 5 -11 0 -14 -3 -6 -6z"/>
<path d="M9358 10761 c-80 -69 -144 -127 -143 -129 2 -2 132 -39 290 -82 l288
-79 141 118 c77 64 148 121 156 126 32 19 -23 -33 -144 -135 -69 -58 -125
-108 -125 -111 -1 -3 130 -42 291 -86 l291 -81 151 125 c83 69 152 128 154
132 2 6 -85 31 -488 137 -69 18 -233 62 -365 97 -132 36 -265 72 -295 80 l-55
14 -147 -126z"/>
<path d="M8370 10624 c-107 -91 -194 -168 -193 -172 1 -3 133 -43 294 -88
l291 -82 197 165 c108 90 197 167 199 172 2 6 -569 172 -589 171 -2 0 -92 -75
-199 -166z"/>
<path d="M6649 10753 c-13 -16 -12 -17 4 -4 16 13 21 21 13 21 -2 0 -10 -8
-17 -17z"/>
<path d="M6519 10653 c-13 -16 -12 -17 4 -4 16 13 21 21 13 21 -2 0 -10 -8
-17 -17z"/>
<path d="M6479 10623 c-13 -16 -12 -17 4 -4 9 7 17 15 17 17 0 8 -8 3 -21 -13z"/>
<path d="M9003 10458 c-103 -88 -194 -165 -200 -172 -10 -9 51 -29 271 -90
156 -44 290 -77 297 -73 17 6 401 329 397 332 -2 2 -118 35 -258 74 -140 39
-269 75 -287 80 -30 9 -37 4 -220 -151z"/>
<path d="M6439 10593 c-13 -16 -12 -17 4 -4 9 7 17 15 17 17 0 8 -8 3 -21 -13z"/>
<path d="M7410 10464 c-96 -75 -194 -150 -218 -167 -23 -17 -39 -34 -35 -38 8
-7 535 -159 552 -159 12 0 414 340 409 346 -2 2 -114 34 -249 72 -135 38 -254
72 -265 76 -14 4 -63 -28 -194 -130z"/>
<path d="M6399 10563 c-13 -16 -12 -17 4 -4 16 13 21 21 13 21 -2 0 -10 -8
-17 -17z"/>
<path d="M10600 10449 c-69 -60 -135 -120 -147 -132 l-23 -22 286 -79 c245
-68 289 -78 307 -67 49 31 297 245 290 251 -7 6 -524 147 -573 156 -8 2 -71
-46 -140 -107z"/>
<path d="M6349 10523 c-13 -16 -12 -17 4 -4 16 13 21 21 13 21 -2 0 -10 -8
-17 -17z"/>
<path d="M6309 10493 c-13 -16 -12 -17 4 -4 16 13 21 21 13 21 -2 0 -10 -8
-17 -17z"/>
<path d="M6269 10463 c-13 -16 -12 -17 4 -4 16 13 21 21 13 21 -2 0 -10 -8
-17 -17z"/>
<path d="M6205 10414 l-40 -36 43 32 c36 27 49 40 40 40 -2 0 -21 -16 -43 -36z"/>
<path d="M9600 10283 c-107 -91 -196 -169 -198 -172 -1 -5 515 -154 569 -165
7 -1 411 335 407 339 -2 2 -129 38 -283 80 -154 43 -284 79 -290 81 -5 2 -98
-71 -205 -163z"/>
<path d="M7945 10264 c-117 -99 -201 -176 -193 -179 7 -2 140 -41 296 -85 239
-68 286 -79 300 -68 10 7 102 85 206 172 125 106 183 162 174 167 -7 4 -128
39 -268 78 -140 40 -267 76 -281 81 -24 7 -45 -7 -234 -166z"/>
<path d="M11190 10265 c-80 -68 -146 -128 -147 -132 -4 -12 564 -166 579 -157
7 4 80 64 161 132 82 68 151 122 153 119 3 -3 -63 -63 -145 -133 -122 -104
-148 -130 -133 -137 9 -4 154 -45 321 -91 l305 -84 163 135 c90 75 162 137
161 139 -6 5 -1244 334 -1258 334 -9 0 -80 -56 -160 -125z"/>
<path d="M6139 10363 c-13 -16 -12 -17 4 -4 16 13 21 21 13 21 -2 0 -10 -8
-17 -17z"/>
<path d="M6099 10333 c-13 -16 -12 -17 4 -4 9 7 17 15 17 17 0 8 -8 3 -21 -13z"/>
<path d="M6030 10284 c-25 -19 -52 -42 -60 -51 -8 -9 13 5 48 31 34 26 62 49
62 52 0 7 -2 5 -50 -32z"/>
<path d="M10210 10114 c-107 -92 -196 -170 -198 -173 -1 -4 124 -43 279 -86
249 -70 283 -77 302 -65 12 7 105 83 206 169 154 130 181 156 165 163 -10 4
-134 39 -274 78 -140 39 -262 73 -270 75 -9 3 -94 -63 -210 -161z"/>
<path d="M8563 10087 c-111 -95 -200 -173 -198 -175 4 -5 549 -162 561 -162 7
0 104 78 217 174 l206 174 -287 81 c-158 45 -289 81 -292 80 -3 0 -96 -78
-207 -172z"/>
<path d="M7090 10221 c-19 -16 -113 -85 -207 -154 -95 -69 -170 -128 -165
-130 4 -3 140 -44 303 -92 l296 -88 184 157 c101 87 185 161 187 165 2 6 -543
172 -559 171 -2 -1 -20 -14 -39 -29z"/>
<path d="M5605 9959 c-187 -143 -347 -267 -355 -276 -18 -20 -10 -14 383 286
273 209 329 253 315 251 -2 -1 -156 -118 -343 -261z"/>
<path d="M10808 9942 c-108 -92 -197 -169 -197 -172 -1 -6 547 -160 567 -160
21 0 411 334 399 341 -12 7 -501 143 -547 153 -21 4 -56 -21 -222 -162z"/>
<path d="M9166 9915 c-117 -99 -202 -177 -194 -180 7 -2 132 -38 278 -80 146
-42 270 -78 276 -80 12 -4 429 344 421 351 -3 3 -564 164 -572 164 -1 0 -95
-79 -209 -175z"/>
<path d="M7530 9917 c-133 -111 -188 -162 -179 -167 22 -12 554 -170 573 -170
15 0 377 302 384 321 2 5 0 9 -5 9 -4 0 -137 38 -295 84 l-286 83 -192 -160z"/>
<path d="M12466 9913 c-87 -75 -155 -138 -150 -140 82 -27 591 -163 601 -161
25 6 312 273 300 280 -11 6 -576 158 -587 158 -3 0 -76 -62 -164 -137z"/>
<path d="M11416 9774 c-108 -92 -196 -170 -196 -173 0 -4 141 -47 314 -95 276
-78 317 -87 333 -75 30 22 382 319 387 327 3 6 -614 183 -636 182 -3 0 -94
-75 -202 -166z"/>
<path d="M9809 9774 c-228 -192 -242 -205 -237 -209 11 -12 562 -164 572 -158
6 4 99 81 206 172 107 91 197 166 199 168 11 8 -22 19 -265 87 -143 40 -268
76 -280 80 -17 5 -54 -21 -195 -140z"/>
<path d="M8155 9740 c-104 -87 -191 -162 -192 -167 -3 -9 549 -177 565 -172
25 9 382 323 375 329 -4 4 -120 40 -258 80 -137 40 -261 76 -275 80 -23 7 -48
-11 -215 -150z"/>
<path d="M13090 9740 c-80 -76 -143 -140 -140 -142 3 -3 139 -42 304 -87 l298
-83 47 44 c163 153 258 250 248 253 -42 15 -579 155 -594 155 -10 -1 -83 -63
-163 -140z"/>
<path d="M12083 9584 c-112 -95 -200 -175 -195 -177 4 -2 146 -43 315 -91
l308 -87 42 38 c98 87 346 317 344 319 -2 2 -460 130 -577 162 -35 9 -36 8
-237 -164z"/>
<path d="M10373 9571 l-211 -179 191 -55 c106 -31 235 -68 288 -83 l96 -27
211 179 c116 98 210 180 208 181 -3 3 -255 75 -556 158 -9 2 -104 -71 -227
-174z"/>
<path d="M8742 9558 c-106 -88 -190 -164 -185 -168 17 -16 563 -171 575 -164
22 13 373 317 376 326 2 4 1 8 -2 8 -3 0 -128 36 -279 80 -151 44 -278 80
-283 80 -5 0 -96 -73 -202 -162z"/>
<path d="M13726 9571 c-121 -121 -145 -150 -130 -155 11 -3 132 -37 269 -75
l250 -71 148 148 c81 80 147 149 147 152 0 3 -116 36 -257 74 -142 38 -263 70
-268 73 -6 2 -77 -64 -159 -146z"/>
<path d="M5209 9653 c-13 -16 -12 -17 4 -4 9 7 17 15 17 17 0 8 -8 3 -21 -13z"/>
<path d="M5136 9590 c-25 -27 -46 -52 -46 -56 0 -4 1 -5 3 -3 2 2 25 28 52 57
26 28 45 52 43 52 -3 0 -26 -22 -52 -50z"/>
<path d="M10980 9406 c-112 -95 -205 -177 -207 -182 -3 -8 597 -185 623 -184
7 0 107 81 223 179 153 131 206 181 193 185 -31 10 -625 176 -626 176 -1 -1
-93 -79 -206 -174z"/>
<path d="M12731 9403 c-153 -142 -188 -179 -174 -185 10 -4 150 -44 310 -89
l292 -82 128 121 c156 147 248 240 242 245 -2 2 -132 39 -289 82 -157 43 -292
80 -301 82 -11 3 -81 -56 -208 -174z"/>
<path d="M14281 9420 c-79 -83 -142 -152 -140 -154 7 -6 591 -168 593 -164 5
8 241 285 254 298 13 13 14 13 7 0 -7 -12 -185 -236 -232 -291 -13 -15 7 -22
211 -80 124 -34 224 -65 222 -67 -3 -2 -106 24 -231 58 -125 34 -228 60 -229
58 -2 -2 -74 -88 -160 -192 -108 -131 -153 -192 -144 -197 7 -4 126 -39 263
-78 138 -39 264 -75 282 -80 l31 -9 153 226 c85 125 200 296 257 380 56 83
101 152 98 152 -3 0 -78 20 -168 44 -90 24 -215 58 -278 75 -63 16 -233 62
-377 100 -143 39 -263 71 -265 71 -3 0 -69 -68 -147 -150z m974 -470 c13 -5
14 -9 5 -9 -8 0 -24 4 -35 9 -13 5 -14 9 -5 9 8 0 24 -4 35 -9z"/>
<path d="M9341 9381 c-158 -131 -197 -168 -183 -173 9 -4 139 -44 289 -88
l272 -81 196 168 c107 92 195 170 195 173 0 4 -92 32 -506 150 l-62 18 -201
-167z"/>
<path d="M5066 9485 c-9 -26 -7 -32 5 -12 6 10 9 21 6 23 -2 3 -7 -2 -11 -11z"/>
<path d="M5051 9424 c0 -11 3 -14 6 -6 3 7 2 16 -1 19 -3 4 -6 -2 -5 -13z"/>
<path d="M13372 9223 c-101 -96 -180 -179 -175 -183 4 -3 126 -40 271 -80
l263 -74 184 184 c101 101 183 185 182 186 -5 5 -518 144 -529 144 -7 0 -95
-80 -196 -177z"/>
<path d="M5043 9355 c0 -22 2 -30 4 -17 2 12 2 30 0 40 -3 9 -5 -1 -4 -23z"/>
<path d="M11643 9212 c-116 -97 -212 -179 -212 -182 -1 -8 645 -193 657 -189
5 2 84 72 174 155 89 83 179 165 198 182 19 16 33 32 30 34 -5 4 -624 178
-631 178 -2 0 -99 -80 -216 -178z"/>
<path d="M9938 9207 c-108 -89 -197 -165 -197 -168 -1 -6 537 -170 564 -173
22 -2 408 337 393 345 -17 9 -538 159 -552 159 -6 0 -100 -74 -208 -163z"/>
<path d="M5050 9284 c0 -10 5 -26 10 -34 8 -11 9 -7 4 15 -8 37 -14 45 -14 19z"/>
<path d="M13936 9064 c-98 -101 -177 -186 -175 -188 16 -13 632 -177 638 -170
5 5 70 83 146 174 76 91 146 174 156 186 l19 20 -299 82 c-164 45 -300 82
-302 81 -2 0 -84 -83 -183 -185z"/>
<path d="M10533 9032 c-111 -92 -202 -169 -202 -172 -1 -6 617 -190 637 -190
9 0 281 228 405 340 6 5 -615 192 -633 189 -3 0 -96 -75 -207 -167z"/>
<path d="M12312 9013 l-204 -186 318 -93 318 -92 187 179 c103 98 192 185 198
193 10 12 6 16 -21 24 -68 22 -575 162 -584 162 -5 0 -101 -84 -212 -187z"/>
<path d="M12967 8827 l-199 -192 279 -82 278 -82 193 196 c107 107 190 199
185 203 -7 7 -517 151 -531 150 -4 -1 -96 -87 -205 -193z"/>
<path d="M11200 8841 c-113 -93 -204 -172 -203 -177 1 -4 156 -54 344 -110
l341 -102 193 182 c106 99 192 182 191 183 -1 1 -143 43 -316 93 -173 50 -322
93 -330 95 -9 3 -98 -64 -220 -164z"/>
<path d="M13544 8662 l-191 -198 339 -98 c333 -97 340 -99 357 -80 44 46 321
385 321 392 0 7 -611 183 -630 182 -3 0 -91 -89 -196 -198z"/>
<path d="M11897 8637 c-103 -95 -188 -176 -188 -182 0 -5 145 -54 323 -107
l323 -97 187 186 c103 103 186 189 184 190 -4 4 -629 183 -636 182 -3 0 -89
-78 -193 -172z"/>
<path d="M14233 8473 c-95 -114 -171 -209 -168 -211 8 -8 630 -189 637 -185
10 5 300 434 296 437 -2 2 -131 38 -288 81 -157 43 -289 80 -295 81 -5 2 -88
-90 -182 -203z"/>
<path d="M12563 8437 c-105 -100 -188 -185 -185 -189 4 -3 133 -44 286 -89
l279 -84 183 190 c101 104 180 193 176 196 -6 5 -534 159 -544 159 -2 0 -89
-82 -195 -183z"/>
<path d="M13146 8261 l-189 -189 69 -21 c432 -130 668 -200 669 -198 1 1 74
91 164 200 90 109 161 201 157 204 -6 6 -655 193 -671 193 -6 0 -95 -85 -199
-189z"/>
<path d="M13880 8054 c-91 -107 -166 -198 -167 -202 -3 -9 686 -214 696 -208
13 8 285 415 280 420 -4 3 -633 186 -641 186 -1 0 -77 -88 -168 -196z"/>
<path d="M4535 8131 c-55 -42 -682 -520 -1394 -1061 l-1295 -984 33 -13 c135
-55 4455 -1642 4459 -1638 3 3 3 5 0 5 -3 0 -646 238 -1429 529 -2081 773
-2728 1013 -2874 1066 -71 26 -134 50 -138 54 -4 4 131 112 300 239 169 127
430 325 580 439 257 197 1503 1145 1754 1336 l117 88 2683 -887 c1476 -487
2688 -890 2692 -894 6 -6 -1137 -1221 -1223 -1300 -27 -25 -504 -529 -615
-650 -57 -63 -56 -62 17 10 116 115 1859 1942 1856 1945 -5 6 -5405 1795
-5414 1795 -5 -1 -54 -36 -109 -79z"/>
<path d="M5734 7994 c39 -13 75 -24 80 -23 6 0 -20 11 -58 25 -39 13 -75 24
-80 23 -6 0 20 -11 58 -25z"/>
<path d="M4590 7920 c-100 -27 -200 -77 -285 -145 -153 -121 -167 -127 -346
-164 -116 -24 -199 -106 -207 -205 -5 -57 10 -96 48 -131 l22 -20 -59 -52 -58
-52 57 -58 c31 -32 65 -76 75 -97 10 -22 23 -41 30 -43 7 -3 33 15 58 38 42
39 47 41 78 31 l32 -10 -36 2 c-32 1 -48 -10 -167 -117 -146 -130 -162 -149
-169 -204 -9 -70 51 -132 152 -158 93 -24 201 -20 292 11 94 32 119 48 240
160 53 49 102 93 110 97 7 5 11 12 8 18 -9 14 5 11 21 -5 46 -46 300 -62 437
-27 165 43 324 154 362 254 16 41 17 55 7 98 -21 92 -16 120 33 190 65 93 77
124 73 192 -3 40 -11 66 -26 85 -12 15 -27 38 -32 52 -33 82 -101 139 -205
172 -38 12 -80 30 -93 40 -13 9 -49 27 -80 39 -83 32 -268 37 -372 9z m-180
-213 c0 -2 -10 -12 -22 -23 l-23 -19 19 23 c18 21 26 27 26 19z m-70 -60 c0
-2 -10 -12 -22 -23 l-23 -19 19 23 c18 21 26 27 26 19z m234 -36 c-2 -3 -12 3
-22 13 -16 17 -16 18 5 5 12 -7 20 -15 17 -18z m77 -28 c13 -16 12 -17 -3 -4
-10 7 -18 15 -18 17 0 8 8 3 21 -13z m-391 -6 c0 -2 -12 -14 -27 -28 l-28 -24
24 28 c23 25 31 32 31 24z m-110 -100 c0 -1 -39 -41 -87 -87 l-88 -85 85 88
c79 81 90 92 90 84z m85 -265 c-3 -3 -11 0 -18 7 -9 10 -8 11 6 5 10 -3 15 -9
12 -12z m105 -17 c-7 -8 -17 -15 -23 -15 -6 0 -2 7 9 15 25 19 30 19 14 0z
m80 -128 c0 -2 -10 -12 -22 -23 l-23 -19 19 23 c18 21 26 27 26 19z m-307 -74
c-7 -2 -19 -2 -25 0 -7 3 -2 5 12 5 14 0 19 -2 13 -5z m60 -10 c-7 -2 -19 -2
-25 0 -7 3 -2 5 12 5 14 0 19 -2 13 -5z m115 -10 c-10 -2 -26 -2 -35 0 -10 3
-2 5 17 5 19 0 27 -2 18 -5z m74 -32 c2 -22 0 -37 -4 -35 -5 3 -8 19 -8 35 0
27 -3 30 -22 24 -18 -5 -20 -4 -8 4 27 19 38 12 42 -28z m-275 3 c-3 -3 -12
-4 -19 -1 -8 3 -5 6 6 6 11 1 17 -2 13 -5z m156 -1 c-7 -2 -19 -2 -25 0 -7 3
-2 5 12 5 14 0 19 -2 13 -5z"/>
<path d="M6300 7809 c112 -38 209 -69 215 -68 5 0 -82 32 -195 70 -112 38
-209 69 -215 68 -5 0 82 -32 195 -70z"/>
<path d="M3909 7833 c-13 -16 -12 -17 4 -4 9 7 17 15 17 17 0 8 -8 3 -21 -13z"/>
<path d="M3869 7803 c-13 -16 -12 -17 4 -4 9 7 17 15 17 17 0 8 -8 3 -21 -13z"/>
<path d="M3829 7773 c-13 -16 -12 -17 4 -4 16 13 21 21 13 21 -2 0 -10 -8 -17
-17z"/>
<path d="M3760 7724 c-25 -19 -52 -42 -60 -51 -8 -9 13 5 48 31 34 26 62 49
62 52 0 7 -2 5 -50 -32z"/>
<path d="M6561 7726 c6 -6 2899 -957 3249 -1068 157 -50 305 -101 330 -113 60
-30 135 -112 167 -183 34 -73 42 -185 20 -263 -23 -79 -74 -145 -280 -367
-217 -233 -1726 -1876 -1875 -2042 -175 -194 -224 -234 -322 -260 -57 -15
-159 -15 -208 0 -20 7 -593 214 -1272 460 -679 247 -1937 703 -2795 1015 -858
311 -1603 581 -1655 601 -117 43 -182 90 -237 171 -101 151 -77 362 54 484 27
24 465 363 976 752 510 390 927 711 927 714 0 3 -8 -1 -17 -9 -10 -8 -373
-284 -808 -613 -1025 -777 -1032 -782 -1088 -834 -94 -88 -160 -230 -172 -373
-18 -196 88 -402 247 -482 96 -48 5825 -2125 5891 -2136 115 -18 230 17 319
98 83 75 2244 2436 2285 2495 60 90 85 172 91 293 2 57 -1 125 -8 157 -25 121
-116 260 -210 319 -26 17 -188 75 -400 144 -377 123 -1977 645 -2742 895 -427
140 -478 155 -467 145z"/>
<path d="M3659 7643 c-13 -16 -12 -17 4 -4 16 13 21 21 13 21 -2 0 -10 -8 -17
-17z"/>
<path d="M5849 6744 c-8 -10 -34 -55 -59 -102 -25 -47 -51 -87 -57 -90 -16 -5
-17 39 -3 122 5 33 7 62 5 64 -11 12 -46 -34 -61 -82 -26 -80 -41 -103 -88
-135 -24 -17 -60 -52 -79 -79 -20 -26 -193 -198 -386 -381 -193 -182 -361
-345 -373 -360 l-24 -28 -2 46 c-1 24 -5 48 -10 53 -6 6 -539 -91 -589 -107
-7 -2 9 -57 47 -157 67 -173 89 -201 189 -239 77 -30 247 -37 351 -15 90 19
201 72 252 121 46 44 887 1006 946 1082 48 63 56 106 18 101 -13 -1 -31 3 -40
11 -13 11 -20 11 -42 -4 -26 -17 -27 -17 -19 1 26 64 63 179 59 186 -8 12 -20
10 -35 -8z m-57 -242 c-18 -23 -39 -38 -52 -38 -20 0 -19 2 7 21 15 11 35 28
43 37 30 33 31 17 2 -20z m-82 2 c-30 -7 -56 -13 -57 -14 -2 0 -3 5 -3 11 0 5
4 8 9 4 5 -3 13 0 16 6 4 5 13 8 19 6 7 -3 19 -1 26 3 7 4 20 5 29 2 9 -3 -7
-11 -39 -18z m170 13 c0 -2 -15 -18 -34 -36 -24 -24 -36 -29 -41 -20 -5 7 -4
10 3 5 6 -3 21 7 34 23 20 26 38 39 38 28z m-240 -27 c0 -5 -10 -10 -22 -9
-22 0 -22 1 -3 9 11 5 21 9 23 9 1 1 2 -3 2 -9z m270 -15 c-21 -22 -48 -26
-34 -4 3 5 10 7 15 4 5 -4 12 1 15 9 3 9 11 16 17 16 6 0 0 -11 -13 -25z
m-217 -28 c-17 -9 -20 -16 -11 -30 8 -15 12 -16 26 -5 15 12 16 11 4 -4 -13
-17 -15 -17 -38 0 -29 21 -30 26 -1 40 30 15 47 14 20 -1z m172 -6 c-9 -8 -36
-10 -30 -2 2 4 11 8 20 8 8 0 13 -3 10 -6z m-51 -22 c-3 -5 -10 -7 -15 -3 -5
3 -7 10 -3 15 3 5 10 7 15 3 5 -3 7 -10 3 -15z m-39 1 c-3 -5 -12 -10 -18 -10
-7 0 -6 4 3 10 19 12 23 12 15 0z m-47 -55 c-3 -3 -9 2 -12 12 -6 14 -5 15 5
6 7 -7 10 -15 7 -18z m-1047 -791 c-11 -22 -20 -33 -21 -26 0 7 7 24 16 37 9
13 12 30 8 37 -5 10 -4 10 5 2 10 -9 8 -20 -8 -50z"/>
<path d="M9521 6406 c8 -8 210 -76 223 -75 6 0 -34 16 -89 35 -127 44 -141 48
-134 40z"/>
<path d="M2560 6340 c-30 -11 -48 -19 -39 -19 20 -1 81 19 94 30 11 11 13 11
-55 -11z"/>
<path d="M9480 6356 c0 -7 191 -68 196 -63 3 3 -37 19 -88 36 -93 31 -108 35
-108 27z"/>
<path d="M9411 6316 c8 -9 242 -87 246 -82 3 2 -47 21 -109 41 -62 21 -120 40
-128 43 -8 3 -12 2 -9 -2z"/>
<path d="M2410 6295 c-19 -7 -28 -13 -20 -13 8 0 31 6 50 13 19 7 28 13 20 13
-8 0 -31 -6 -50 -13z"/>
<path d="M6550 6280 c8 -5 20 -10 25 -10 6 0 3 5 -5 10 -8 5 -19 10 -25 10 -5
0 -3 -5 5 -10z"/>
<path d="M2310 6265 c-19 -7 -28 -13 -20 -13 8 0 31 6 50 13 19 7 28 13 20 13
-8 0 -31 -6 -50 -13z"/>
<path d="M6630 6250 c8 -5 20 -10 25 -10 6 0 3 5 -5 10 -8 5 -19 10 -25 10 -5
0 -3 -5 5 -10z"/>
<path d="M2218 6233 c7 -3 16 -2 19 1 4 3 -2 6 -13 5 -11 0 -14 -3 -6 -6z"/>
<path d="M6680 6232 c8 -5 26 -13 40 -16 17 -5 20 -4 10 2 -8 5 -26 13 -40 16
-17 5 -20 4 -10 -2z"/>
<path d="M6760 6202 c8 -5 26 -13 40 -16 17 -5 20 -4 10 2 -8 5 -26 13 -40 16
-17 5 -20 4 -10 -2z"/>
<path d="M6832 6175 c16 -16 1527 -570 1534 -562 2 2 -161 64 -364 137 -202
73 -547 200 -766 282 -388 144 -415 153 -404 143z"/>
<path d="M4110 6029 c-52 -44 -142 -115 -199 -157 -127 -95 -148 -111 -139
-112 17 -1 416 313 434 341 10 17 -1 8 -96 -72z"/>
<path d="M6970 6030 c8 -5 20 -10 25 -10 6 0 3 5 -5 10 -8 5 -19 10 -25 10 -5
0 -3 -5 5 -10z"/>
<path d="M7010 6017 c12 -13 810 -310 816 -304 2 2 -175 70 -393 152 -455 169
-430 160 -423 152z"/>
<path d="M11978 5943 c7 -3 16 -2 19 1 4 3 -2 6 -13 5 -11 0 -14 -3 -6 -6z"/>
<path d="M11279 5873 l-34 -38 38 34 c34 33 42 41 34 41 -2 0 -19 -17 -38 -37z"/>
<path d="M12160 5885 c19 -7 42 -13 50 -13 8 0 -1 6 -20 13 -19 7 -42 13 -50
13 -8 0 1 -6 20 -13z"/>
<path d="M11785 5854 c67 -23 335 -111 1460 -475 275 -88 502 -163 504 -164 1
-2 -202 -255 -453 -562 -570 -697 -662 -809 -1185 -1452 -233 -287 -426 -521
-429 -521 -2 0 0 6 5 13 154 193 635 822 647 845 24 46 21 65 -9 60 -14 -3
-25 -2 -25 2 0 14 -31 20 -51 10 -23 -13 -23 -9 -4 54 35 116 3 147 -40 39
-53 -135 -75 -143 -75 -27 0 58 -3 74 -15 74 -8 0 -18 -16 -25 -40 -5 -22 -15
-58 -20 -79 -7 -28 -20 -45 -45 -59 -18 -12 -46 -40 -60 -63 -30 -47 -603
-644 -618 -644 -6 0 -15 14 -20 30 -5 17 -11 31 -12 32 -2 4 -515 -94 -521
-99 -8 -9 126 -242 158 -275 118 -122 452 -120 616 5 26 19 42 29 36 21 -52
-66 -187 -230 -194 -234 -7 -4 -1034 338 -1256 419 -39 14 -316 108 -616 209
l-546 184 99 111 c55 61 107 113 117 115 82 22 201 61 198 64 -4 4 -133 -29
-176 -45 -15 -6 2 15 171 199 52 57 120 131 149 164 30 33 77 85 106 115 29
30 68 75 88 99 20 24 106 119 190 210 84 91 279 303 432 471 154 168 376 411
494 539 118 129 209 232 202 227 -6 -4 -483 -518 -1058 -1143 l-1047 -1137 39
-14 c22 -7 561 -190 1199 -407 638 -216 1173 -398 1189 -404 16 -7 32 -8 36
-4 60 69 2354 2899 2353 2902 -1 3 -174 61 -385 128 -1406 453 -1656 533
-1664 532 -5 0 23 -12 61 -25z"/>
<path d="M12354 5824 c39 -13 75 -24 80 -23 6 0 -20 11 -58 25 -39 13 -75 24
-80 23 -6 0 20 -11 58 -25z"/>
<path d="M11165 5748 l-50 -53 53 50 c48 46 57 55 49 55 -1 0 -25 -24 -52 -52z"/>
<path d="M12451 5796 c3 -3 715 -230 1327 -423 187 -59 232 -98 232 -201 0
-67 14 -47 -476 -653 -88 -108 -355 -439 -594 -735 -239 -297 -567 -703 -730
-904 -163 -201 -378 -468 -479 -595 -261 -326 -273 -337 -355 -336 -27 0 -413
126 -1126 366 -1462 493 -1468 495 -1503 524 -63 53 -76 150 -29 219 15 23
122 144 238 269 115 126 450 491 744 813 887 970 1310 1432 1364 1488 27 28
48 52 44 52 -6 0 -782 -837 -1733 -1869 -683 -742 -672 -729 -697 -781 -30
-59 -29 -147 0 -212 24 -54 92 -133 133 -154 15 -7 596 -206 1291 -441 1345
-455 1321 -448 1395 -410 38 20 2504 3070 2541 3142 28 55 39 162 23 222 -13
49 -89 136 -140 162 -20 10 -106 39 -191 66 -85 26 -406 125 -712 221 -530
165 -577 179 -567 170z"/>
<path d="M7880 5690 c8 -5 20 -10 25 -10 6 0 3 5 -5 10 -8 5 -19 10 -25 10 -5
0 -3 -5 5 -10z"/>
<path d="M11229 5613 l-34 -38 38 34 c20 19 37 36 37 38 0 8 -8 0 -41 -34z"/>
<path d="M8405 5596 c17 -7 41 -16 55 -20 20 -5 19 -3 -5 8 -16 7 -41 16 -55
20 -20 5 -19 3 5 -8z"/>
<path d="M8560 5540 c8 -5 20 -10 25 -10 6 0 3 5 -5 10 -8 5 -19 10 -25 10 -5
0 -3 -5 5 -10z"/>
<path d="M11115 5488 l-50 -53 53 50 c48 46 57 55 49 55 -1 0 -25 -24 -52 -52z"/>
<path d="M6040 5512 c8 -5 26 -13 40 -16 17 -5 20 -4 10 2 -8 5 -26 13 -40 16
-17 5 -20 4 -10 -2z"/>
<path d="M6111 5486 c13 -14 1159 -419 1165 -413 3 2 -82 35 -188 72 -106 37
-368 130 -582 206 -372 133 -405 144 -395 135z"/>
<path d="M5900 5440 c8 -5 20 -10 25 -10 6 0 3 5 -5 10 -8 5 -19 10 -25 10 -5
0 -3 -5 5 -10z"/>
<path d="M5971 5416 c14 -14 1359 -489 1366 -483 2 2 -122 48 -274 102 -153
53 -460 162 -682 241 -388 139 -420 149 -410 140z"/>
<path d="M6280 5181 c26 -15 562 -202 567 -198 4 4 -561 207 -575 207 -4 0 0
-4 8 -9z"/>
<path d="M13308 5183 c7 -3 16 -2 19 1 4 3 -2 6 -13 5 -11 0 -14 -3 -6 -6z"/>
<path d="M13385 5160 c11 -5 27 -9 35 -9 9 0 8 4 -5 9 -11 5 -27 9 -35 9 -9 0
-8 -4 5 -9z"/>
<path d="M11960 5150 c8 -5 20 -10 25 -10 6 0 3 5 -5 10 -8 5 -19 10 -25 10
-5 0 -3 -5 5 -10z"/>
<path d="M13268 5143 c7 -3 16 -2 19 1 4 3 -2 6 -13 5 -11 0 -14 -3 -6 -6z"/>
<path d="M13455 5140 c27 -12 43 -12 25 0 -8 5 -22 9 -30 9 -10 0 -8 -3 5 -9z"/>
<path d="M13345 5120 c11 -5 27 -9 35 -9 9 0 8 4 -5 9 -11 5 -27 9 -35 9 -9 0
-8 -4 5 -9z"/>
<path d="M13408 5103 c7 -3 16 -2 19 1 4 3 -2 6 -13 5 -11 0 -14 -3 -6 -6z"/>
<path d="M7290 5067 c0 -7 122 -48 127 -43 3 2 -20 12 -49 21 -29 10 -59 20
-65 23 -7 2 -13 2 -13 -1z"/>
<path d="M10932 4785 c-93 -20 -197 -75 -283 -148 -95 -81 -122 -95 -219 -112
-128 -22 -187 -63 -211 -145 -15 -50 3 -105 49 -147 l35 -32 -42 -37 c-22 -21
-41 -43 -41 -49 0 -7 27 -33 60 -59 33 -26 60 -51 60 -56 0 -5 12 -23 26 -40
l27 -31 -70 -67 c-86 -83 -104 -124 -76 -179 38 -79 141 -117 296 -111 67 2
102 8 105 16 2 7 16 12 31 12 39 0 103 46 195 140 44 44 82 80 86 80 4 0 42
-9 85 -20 143 -37 312 -21 444 40 82 39 124 71 162 123 33 46 39 109 14 158
-26 50 -21 91 20 165 58 103 53 160 -19 246 -17 20 -42 51 -55 68 -29 39 -109
85 -181 105 -30 9 -78 27 -105 40 -104 52 -265 68 -393 40z"/>
<path d="M6360 4422 c8 -5 26 -13 40 -16 17 -5 20 -4 10 2 -8 5 -26 13 -40 16
-17 5 -20 4 -10 -2z"/>
<path d="M6470 4380 c8 -5 20 -10 25 -10 6 0 3 5 -5 10 -8 5 -19 10 -25 10 -5
0 -3 -5 5 -10z"/>
<path d="M8009 4273 l-24 -28 28 24 c15 14 27 26 27 28 0 8 -8 1 -31 -24z"/>
<path d="M10765 3170 c-33 -33 -55 -60 -49 -60 13 0 119 108 113 114 -3 3 -32
-21 -64 -54z"/>
<path d="M10660 3075 c-19 -19 -30 -35 -26 -35 14 0 76 59 67 64 -4 3 -23 -10
-41 -29z"/>
<path d="M10560 2988 l-55 -50 58 43 c31 24 57 47 57 51 0 12 0 11 -60 -44z"/>
</g>
</svg>
