<?xml version="1.0" standalone="no"?>
<!DOCTYPE svg PUBLIC "-//W3C//DTD SVG 20010904//EN"
 "http://www.w3.org/TR/2001/REC-SVG-20010904/DTD/svg10.dtd">
<svg version="1.0" xmlns="http://www.w3.org/2000/svg"
 width="2000.000000pt" height="2000.000000pt" viewBox="0 0 2000.000000 2000.000000"
 preserveAspectRatio="xMidYMid meet">

<g transform="translate(0.000000,2000.000000) scale(0.100000,-0.100000)"
fill="#000000" stroke="none">
<path d="M6843 16699 c-182 -30 -360 -164 -443 -331 -75 -153 -70 41 -70
-2567 l0 -2344 -58 55 c-112 107 -208 136 -458 140 -177 2 -231 -7 -334 -55
-137 -64 -298 -279 -395 -527 -25 -63 -50 -108 -75 -135 -64 -68 -164 -198
-198 -256 -42 -74 -66 -169 -59 -236 7 -62 42 -144 85 -193 l30 -35 -36 74
c-35 70 -37 80 -37 170 0 90 2 101 36 171 32 66 109 185 109 169 0 -3 -18 -44
-39 -90 -95 -202 -94 -355 3 -482 31 -41 109 -107 127 -107 5 0 9 21 9 46 l0
47 41 -51 c41 -52 142 -125 214 -155 109 -45 292 -72 417 -60 l67 6 96 103
c53 58 101 102 106 98 35 -21 -23 -112 -252 -399 -83 -104 -164 -207 -179
-227 -28 -38 -28 -38 -51 -19 -13 10 -50 30 -82 44 -107 48 -429 271 -651 450
-276 223 -392 284 -812 427 -298 102 -348 102 -308 0 25 -62 111 -132 237
-196 62 -30 114 -57 116 -60 2 -2 -12 -21 -32 -43 -59 -65 -80 -116 -74 -175
4 -28 9 -62 12 -76 9 -35 13 -42 -220 390 -114 212 -216 395 -228 408 -14 15
-32 22 -56 22 -47 -1 -475 -65 -490 -74 -19 -12 -13 -29 50 -145 l60 -112 -23
-47 c-33 -67 -29 -181 12 -380 60 -297 157 -517 308 -707 97 -120 343 -365
443 -440 186 -139 529 -321 818 -434 318 -125 549 -167 676 -123 75 26 177 98
313 222 l122 111 -1 -38 c0 -21 -6 -139 -12 -262 -8 -150 -9 -225 -2 -227 28
-9 341 -24 518 -24 188 0 477 12 592 25 l50 6 28 -53 c34 -65 92 -111 189
-148 64 -24 178 -48 178 -37 0 3 -35 17 -77 32 -88 31 -152 65 -203 108 -39
33 -76 85 -67 93 3 3 66 12 139 20 107 11 258 30 467 57 9 1 20 -14 28 -38
l13 -40 -6 41 c-6 47 -6 47 97 59 31 4 61 10 68 14 9 6 -8 54 -59 174 -305
723 -655 1390 -887 1696 -30 39 -33 51 -33 110 0 56 5 77 37 139 36 71 37 78
41 196 5 135 -9 204 -54 282 l-24 41 0 2416 c0 2091 2 2431 15 2530 43 330
176 514 404 557 33 6 288 10 660 10 559 0 608 -2 627 -18 44 -35 56 -69 64
-177 9 -118 25 -157 80 -190 35 -20 45 -20 1435 -20 1380 0 1401 0 1440 20 58
30 75 67 84 187 8 111 24 154 65 182 23 14 85 16 629 16 509 0 612 -2 662 -15
207 -54 330 -219 392 -525 16 -80 17 -400 20 -5102 l3 -5018 -542 0 -543 0
-195 -283 -195 -282 192 3 193 3 0 -516 0 -515 -2232 2 -2232 3 -57 645 c-32
355 -60 686 -64 735 -3 50 -13 162 -20 250 -8 88 -15 172 -15 188 l0 27 75 0
75 0 0 365 0 365 -274 0 c-233 0 -292 -3 -397 -21 -110 -19 -150 -21 -354 -16
-292 7 -437 26 -1065 141 -449 82 -511 90 -760 90 -254 1 -299 -6 -430 -71
-106 -53 -224 -171 -273 -273 -46 -96 -74 -205 -91 -355 -17 -142 -29 -393
-14 -285 45 327 89 522 140 624 61 121 159 220 281 286 l64 34 439 -113 c659
-169 1128 -292 1137 -298 5 -3 -79 -63 -185 -133 -402 -264 -457 -362 -398
-707 52 -304 183 -752 402 -1373 92 -259 106 -295 114 -287 3 3 -46 153 -109
333 -211 604 -292 877 -372 1250 -69 319 -49 433 101 573 67 63 438 319 476
329 18 4 146 -25 160 -37 4 -4 -38 -31 -94 -61 -245 -133 -426 -276 -497 -395
-30 -49 -34 -65 -33 -120 1 -84 23 -203 77 -410 74 -285 64 -275 96 -90 16 88
44 259 64 380 19 121 38 232 41 248 l6 27 174 0 174 0 0 -847 c0 -467 3 -865
6 -886 l7 -37 -102 0 c-66 0 -100 -4 -96 -10 3 -6 50 -10 104 -10 l98 0 12
-42 c55 -184 210 -339 411 -409 62 -22 82 -23 400 -27 l335 -3 99 -592 c54
-326 100 -602 103 -614 5 -22 10 -23 89 -23 46 0 84 4 84 9 0 14 -99 1143
-104 1184 l-4 37 2214 0 2214 0 0 -270 0 -270 1147 2 1147 3 177 1240 c98 682
180 1255 183 1272 l5 33 -595 0 -594 0 0 1201 0 1201 38 -6 c20 -4 901 -108
1957 -232 1286 -151 1939 -224 1978 -220 116 9 226 92 269 202 24 61 401 3235
396 3334 -6 116 -79 220 -181 259 -40 14 -581 81 -2255 277 l-2202 258 -2
2141 -3 2140 -22 65 c-56 162 -172 298 -314 368 -160 78 126 72 -3336 71
-1704 -1 -3121 -5 -3150 -10z m3531 -465 c19 -18 21 -45 4 -62 -17 -17 -739
-17 -756 0 -17 17 -15 44 4 62 13 14 61 16 374 16 313 0 361 -2 374 -16z
m3483 -4889 c130 -15 169 -29 202 -70 43 -56 44 -78 16 -322 -29 -250 -43
-298 -98 -332 -46 -28 -90 -32 -202 -18 l-100 12 -3 377 -2 377 32 -5 c18 -2
88 -11 155 -19z m2228 -261 c363 -42 661 -77 661 -78 3 -2 -14 -127 -17 -131
-2 -2 -305 32 -674 76 -368 43 -673 79 -676 79 -3 0 -2 24 2 53 4 28 8 59 8
69 1 10 8 15 19 12 9 -2 314 -38 677 -80z m-9869 -361 c-16 -84 -17 -108 -6
-148 12 -44 35 -74 47 -62 9 10 9 95 0 150 -5 30 -5 47 2 47 26 0 41 -151 21
-204 -20 -55 -77 -17 -100 66 -18 68 -2 178 26 178 12 0 14 -7 10 -27z m524
-47 c0 -12 -5 -7 -19 24 -11 24 -11 24 3 6 9 -11 16 -24 16 -30z m-3293 -28
c12 -13 113 -194 226 -403 214 -396 222 -415 163 -415 -34 0 -165 98 -287 215
-68 66 -146 115 -184 115 -33 0 -57 -33 -57 -79 1 -50 34 -114 111 -216 44
-59 56 -81 45 -83 -49 -11 -57 1 -262 380 -237 440 -229 423 -213 442 16 19
92 26 111 10 20 -17 220 12 220 32 0 16 16 22 66 23 30 1 46 -5 61 -21z m-224
-15 c-7 -2 -21 -2 -30 0 -10 3 -4 5 12 5 17 0 24 -2 18 -5z m3518 -63 c16 -54
19 -76 11 -97 l-10 -28 -1 31 c-1 17 -8 53 -16 80 -15 49 -19 84 -10 84 2 0
14 -31 26 -70z m-1071 25 c0 -26 -37 -51 -53 -36 -16 15 14 50 51 60 1 1 2
-10 2 -24z m1075 -285 c-9 -27 -21 -52 -26 -55 -17 -11 -9 39 13 92 28 64 37
37 13 -37z m-3471 -408 c31 -56 56 -105 56 -108 0 -28 -71 89 -110 181 -31 73
-9 44 54 -73z m994 -6 c2 -10 1 -34 -4 -54 -7 -35 -7 -36 -14 -12 -13 42 -11
92 3 88 6 -3 14 -13 15 -22z m9915 -2 c42 -6 48 -9 45 -28 -3 -19 -8 -21 -70
-17 -62 3 -68 1 -68 -17 0 -15 9 -21 39 -26 49 -7 81 -45 81 -93 0 -41 -23
-89 -49 -103 -33 -17 -96 -12 -125 11 -29 22 -30 27 -17 48 8 13 15 12 45 -4
50 -27 90 -13 94 33 5 52 -13 65 -77 58 l-54 -7 6 43 c4 24 11 60 17 81 11 37
13 38 48 33 20 -3 59 -8 85 -12z m282 -49 c0 -14 -9 -21 -34 -26 -18 -4 -40
-14 -49 -23 -15 -15 -14 -16 6 -16 95 0 148 -115 83 -180 -37 -37 -73 -46
-119 -28 -50 18 -75 67 -67 128 13 94 85 174 150 168 22 -2 30 -8 30 -23z
m-10178 -17 c-3 -8 -6 -5 -6 6 -1 11 2 17 5 13 3 -3 4 -12 1 -19z m10474 6
c23 -13 10 -52 -55 -165 -54 -94 -76 -125 -93 -127 -35 -5 -29 18 37 135 33
58 60 107 60 109 0 2 -27 6 -60 10 -63 7 -76 15 -66 41 5 13 19 14 89 8 45 -4
85 -9 88 -11z m-10816 -72 c-2 -2 -17 6 -33 18 -28 21 -29 23 -13 39 15 17 17
16 33 -18 9 -20 15 -37 13 -39z m11020 42 c25 -10 45 -63 34 -92 -6 -17 -5
-30 6 -45 8 -12 15 -39 15 -60 0 -31 -7 -46 -35 -74 -32 -32 -39 -35 -78 -30
-52 7 -97 52 -97 98 0 35 23 84 43 92 9 3 12 16 9 37 -8 55 48 95 103 74z
m-1275 -69 c0 -8 -4 -17 -10 -20 -6 -4 -10 5 -10 20 0 15 4 24 10 20 6 -3 10
-12 10 -20z m-10164 -9 c16 -22 18 -52 5 -60 -14 -9 -96 23 -130 52 l-32 27
71 0 c59 0 74 -3 86 -19z m12012 4 c50 -31 63 -83 41 -163 -23 -84 -126 -154
-166 -114 -19 19 -9 37 22 37 13 0 36 10 50 23 l26 22 -34 1 c-50 1 -84 27
-98 74 -16 53 6 104 54 125 44 19 66 18 105 -5z m294 -40 c56 -44 60 -166 8
-238 -66 -92 -166 -53 -187 71 -7 47 13 112 48 152 25 28 38 35 69 35 22 0 48
-8 62 -20z m235 -26 c8 -23 -17 -266 -30 -281 -5 -7 -15 -13 -22 -13 -7 0 -15
6 -18 13 -4 11 4 99 18 190 5 34 3 37 -20 37 -39 0 -34 37 8 55 42 19 56 18
64 -1z m230 -39 c25 -28 31 -91 13 -125 -6 -11 -35 -37 -66 -59 l-56 -40 52
-7 c52 -7 73 -25 52 -46 -8 -8 -36 -8 -99 1 -125 18 -129 31 -28 100 86 59
105 78 105 105 0 33 -33 60 -65 52 -14 -3 -36 -9 -50 -12 -21 -5 -25 -3 -25
15 0 54 124 67 167 16z m555 -41 c16 -10 7 -33 -25 -61 l-34 -30 24 -27 c36
-42 32 -99 -11 -142 -26 -26 -42 -34 -70 -34 -49 0 -96 25 -96 51 0 28 24 34
54 14 31 -21 71 -13 87 16 16 31 3 65 -30 79 -40 16 -45 36 -16 62 34 29 31
38 -9 38 -38 0 -51 12 -42 37 5 13 18 15 83 9 42 -4 80 -9 85 -12z m274 -84
c-3 -27 -9 -72 -12 -100 -5 -41 -4 -50 9 -50 17 0 27 -18 19 -37 -2 -7 -10
-13 -18 -13 -8 0 -14 -10 -14 -24 0 -29 -12 -39 -34 -30 -10 4 -16 18 -16 35
0 25 -4 29 -29 29 -63 0 -120 13 -126 29 -4 11 23 44 96 113 56 54 109 98 117
98 12 0 13 -10 8 -50z m264 20 c16 -4 25 -14 25 -26 0 -17 -6 -19 -66 -16 -60
3 -67 1 -72 -17 -4 -18 0 -21 23 -21 19 0 41 -12 64 -34 46 -43 50 -98 10
-145 -41 -49 -106 -53 -152 -10 -42 39 -12 63 42 34 39 -21 58 -16 82 20 16
25 16 27 -3 53 -20 27 -39 31 -98 20 -18 -3 -20 2 -17 54 1 31 6 68 12 83 9
24 12 25 67 19 32 -4 69 -10 83 -14z m270 -50 c0 -13 -9 -21 -27 -26 -68 -14
-100 -44 -48 -44 90 0 139 -108 79 -179 -75 -90 -208 -18 -189 103 16 101 74
165 148 166 30 0 37 -4 37 -20z m-3052 -474 c486 -58 885 -106 887 -108 2 -2
0 -30 -3 -63 -6 -50 -10 -60 -27 -63 -18 -2 -1682 189 -1762 203 l-33 6 0 64
c0 64 0 65 28 65 15 0 425 -47 910 -104z m-431 -251 c256 -30 472 -55 480 -55
11 0 13 -12 7 -62 -3 -35 -9 -66 -13 -70 -5 -5 -899 94 -958 107 -21 5 -23 11
-23 70 0 59 2 65 21 65 11 0 230 -25 486 -55z m3156 -51 c26 -9 68 -35 95 -59
202 -181 80 -515 -188 -515 -88 0 -149 22 -209 76 -65 59 -95 127 -95 219 -1
120 60 215 169 267 70 33 154 38 228 12z m-10171 -3011 c20 -126 89 -536 152
-913 64 -377 116 -691 116 -697 0 -19 -219 -17 -289 2 -211 56 -369 229 -415
457 -14 65 -16 176 -16 728 l0 650 208 0 208 0 36 -227z"/>
<path d="M14356 9714 c-34 -34 -6 -104 41 -104 20 0 53 38 53 60 0 25 -34 60
-59 60 -11 0 -27 -7 -35 -16z"/>
<path d="M14910 9740 c0 -13 7 -20 18 -20 24 0 32 8 25 26 -8 22 -43 17 -43
-6z"/>
<path d="M14875 9640 c-41 -46 29 -116 75 -75 22 20 27 64 8 83 -19 19 -63 14
-83 -8z"/>
<path d="M15441 9674 c-26 -33 -26 -37 2 -70 19 -21 29 -26 50 -20 53 13 61
82 12 104 -36 17 -41 15 -64 -14z"/>
<path d="M15731 9634 c-24 -31 -36 -100 -23 -134 25 -66 73 -62 104 7 43 98
-22 202 -81 127z"/>
<path d="M17032 9417 c-23 -24 -42 -45 -42 -49 0 -3 18 -8 39 -10 l40 -3 6 48
c4 27 5 50 3 52 -2 3 -23 -15 -46 -38z"/>
<path d="M17540 9335 c-7 -8 -12 -26 -12 -40 0 -34 19 -55 52 -55 31 0 60 27
60 57 0 44 -72 71 -100 38z"/>
<path d="M7531 8030 c-1 -8 7 -51 16 -95 13 -63 17 -137 17 -350 1 -242 -2
-280 -21 -366 -26 -116 -58 -190 -107 -249 -136 -163 -433 -239 -886 -226
-233 6 -334 15 -835 76 -743 89 -858 98 -1017 81 -223 -24 -345 -78 -479 -211
-125 -125 -198 -260 -284 -529 -43 -132 -256 -932 -252 -944 1 -5 38 121 81
280 208 760 247 878 344 1032 94 150 206 247 350 304 208 80 396 79 1087 -7
754 -94 1007 -114 1245 -96 323 23 501 76 616 183 70 65 114 141 143 247 41
152 53 440 26 653 -15 115 -42 250 -44 217z"/>
<path d="M16155 7476 c-176 -34 -304 -124 -373 -263 -62 -123 -67 -228 -29
-558 l24 -200 -25 -43 c-84 -146 89 -305 228 -209 95 65 91 199 -7 262 -38 24
-38 23 -63 245 -39 327 -27 404 74 506 44 44 77 67 119 82 168 63 376 21 506
-103 91 -87 115 -143 171 -393 79 -360 77 -344 49 -383 -32 -45 -32 -120 -1
-171 32 -51 98 -82 157 -73 81 12 135 77 135 162 0 68 -37 119 -107 148 -2 1
-30 123 -63 272 -32 149 -67 292 -75 317 -60 176 -244 340 -439 390 -87 23
-200 28 -281 12z"/>
<path d="M7679 7083 c-6 -16 -13 -43 -16 -62 -4 -19 -14 -42 -25 -53 -23 -23
-23 -34 2 -41 16 -4 20 -14 20 -52 0 -34 -4 -46 -12 -42 -85 31 -89 32 -98 17
-12 -19 21 -49 63 -57 20 -4 32 -14 39 -34 12 -36 38 -38 38 -5 0 19 7 26 29
31 34 7 67 40 75 75 9 36 -25 85 -68 100 -34 11 -36 14 -36 56 0 43 1 45 23
38 63 -21 94 12 38 40 -43 23 -60 20 -72 -11z m55 -195 c13 -21 -2 -51 -28
-56 -13 -3 -16 5 -16 38 0 33 3 41 16 38 9 -2 22 -11 28 -20z"/>
<path d="M7878 7089 c-49 -36 -23 -78 27 -45 31 20 54 20 83 0 44 -30 30 -62
-64 -150 -115 -106 -113 -116 28 -112 95 3 103 4 103 23 0 17 -8 20 -59 23
l-58 3 61 64 c55 57 61 67 61 105 0 34 -6 48 -34 76 -28 28 -41 34 -77 34 -28
-1 -54 -8 -71 -21z"/>
<path d="M8197 7099 c-23 -13 -55 -78 -63 -126 -9 -56 12 -121 52 -161 31 -31
39 -34 75 -29 49 6 67 21 90 72 37 80 15 198 -43 239 -25 18 -84 21 -111 5z
m83 -49 c57 -30 50 -178 -11 -210 -69 -38 -115 133 -53 201 19 21 36 24 64 9z"/>
<path d="M8629 7097 c-77 -59 -84 -208 -14 -283 56 -59 125 -43 166 37 39 77
23 187 -32 234 -33 27 -92 34 -120 12z m101 -69 c25 -41 27 -124 4 -156 -56
-80 -122 -25 -112 95 4 43 10 61 28 75 33 27 58 22 80 -14z"/>
<path d="M8958 7083 c-35 -37 -49 -77 -49 -139 0 -91 52 -164 116 -164 84 0
142 120 110 227 -29 97 -120 136 -177 76z m112 -55 c13 -22 20 -51 20 -86 0
-46 -4 -58 -29 -82 -51 -52 -101 -10 -101 85 0 101 68 152 110 83z"/>
<path d="M8493 6842 c-18 -11 -19 -43 -2 -55 35 -23 67 21 37 51 -14 14 -19
14 -35 4z"/>
<path d="M7900 5935 l0 -445 2040 0 2040 0 0 445 0 445 -2040 0 -2040 0 0
-445z m2087 154 c59 -22 113 -99 113 -161 0 -47 -39 -119 -79 -145 -44 -30
-122 -31 -169 -3 -62 38 -94 121 -73 191 29 97 123 151 208 118z m604 -16 c54
-32 25 -77 -31 -48 -60 31 -137 10 -165 -45 -55 -106 58 -210 166 -154 37 18
59 12 59 -16 0 -26 -68 -59 -120 -60 -79 0 -160 67 -174 145 -15 77 42 172
117 194 42 13 111 6 148 -16z m-2027 -146 c48 -130 54 -153 42 -165 -18 -19
-33 -9 -51 34 -14 33 -16 34 -69 34 -55 0 -56 -1 -73 -37 -19 -40 -49 -55 -59
-29 -6 17 93 292 113 312 8 7 20 11 27 8 7 -3 39 -73 70 -157z m276 140 c75
-40 112 -145 76 -215 -33 -63 -99 -102 -173 -102 -64 0 -63 -3 -63 169 0 87 3
161 7 164 16 16 111 6 153 -16z m330 1 c59 -31 82 -65 88 -131 5 -69 -17 -120
-69 -154 -41 -27 -110 -40 -153 -29 l-26 6 0 153 c0 106 4 157 12 165 20 20
100 14 148 -10z m558 -2 c5 -24 -14 -36 -60 -36 l-37 0 -3 -137 c-3 -130 -4
-138 -23 -138 -19 0 -20 8 -23 138 l-3 137 -39 0 c-46 0 -77 24 -59 46 9 12
37 14 128 12 104 -3 116 -5 119 -22z m1166 -139 c48 -130 54 -153 42 -165 -18
-19 -35 -8 -52 34 -14 33 -16 34 -73 34 -56 0 -59 -1 -66 -27 -12 -50 -48 -72
-61 -38 -8 19 93 295 113 312 8 6 21 9 27 7 7 -3 39 -73 70 -157z m285 137
c38 -31 49 -81 28 -123 -13 -27 -13 -35 4 -87 24 -72 24 -94 2 -94 -30 0 -43
15 -50 56 -8 53 -19 64 -64 64 l-39 0 0 -54 c0 -64 -22 -94 -46 -61 -19 25
-20 295 -2 313 7 7 39 12 74 12 52 0 67 -4 93 -26z m349 2 c5 -24 -14 -36 -60
-36 l-37 0 -3 -137 c-3 -130 -4 -138 -23 -138 -19 0 -20 8 -23 138 l-3 137
-39 0 c-46 0 -77 24 -59 46 9 12 37 14 128 12 104 -3 116 -5 119 -22z"/>
<path d="M9881 6026 c-33 -18 -50 -53 -51 -104 0 -37 6 -50 35 -79 32 -32 39
-35 78 -30 101 14 134 144 53 209 -25 21 -81 23 -115 4z"/>
<path d="M8466 5940 c-9 -23 -15 -45 -12 -47 2 -2 18 -3 34 -1 l30 3 -17 44
-18 44 -17 -43z"/>
<path d="M8730 5920 l0 -110 34 0 c64 0 114 67 102 134 -9 46 -56 86 -102 86
l-34 0 0 -110z"/>
<path d="M9070 5920 l0 -110 31 0 c22 0 41 10 65 34 28 28 34 42 34 76 0 34
-6 48 -34 76 -24 24 -43 34 -65 34 l-31 0 0 -110z"/>
<path d="M10796 5940 c-9 -23 -15 -45 -12 -47 2 -2 18 -3 34 -1 l30 3 -17 44
-18 44 -17 -43z"/>
<path d="M11060 5985 l0 -45 38 0 c43 0 62 14 62 45 0 31 -19 45 -62 45 l-38
0 0 -45z"/>
<path d="M3661 5154 c-7 -25 -10 -48 -8 -51 3 -2 10 17 16 43 7 25 10 48 8 51
-3 2 -10 -17 -16 -43z"/>
<path d="M3641 5074 c0 -11 3 -14 6 -6 3 7 2 16 -1 19 -3 4 -6 -2 -5 -13z"/>
<path d="M3631 5034 c0 -11 3 -14 6 -6 3 7 2 16 -1 19 -3 4 -6 -2 -5 -13z"/>
<path d="M3621 4994 c0 -11 3 -14 6 -6 3 7 2 16 -1 19 -3 4 -6 -2 -5 -13z"/>
<path d="M3601 4924 c0 -11 3 -14 6 -6 3 7 2 16 -1 19 -3 4 -6 -2 -5 -13z"/>
<path d="M3591 4884 c0 -11 3 -14 6 -6 3 7 2 16 -1 19 -3 4 -6 -2 -5 -13z"/>
<path d="M3620 4130 c0 -6 138 -10 395 -10 257 0 395 4 395 10 0 6 -138 10
-395 10 -257 0 -395 -4 -395 -10z"/>
<path d="M1909 3878 l-81 -253 -56 -50 c-119 -106 -381 -306 -427 -324 -18 -8
-181 -117 -258 -174 -41 -30 -83 -70 -95 -89 -48 -79 -68 -230 -36 -276 19
-28 40 -28 277 -2 832 93 2162 294 2250 341 21 12 21 7 -19 332 l-24 198 32
134 c17 74 29 137 26 140 -5 5 -1477 275 -1499 275 -4 0 -45 -114 -90 -252z"/>
<path d="M3381 4064 c0 -11 3 -14 6 -6 3 7 2 16 -1 19 -3 4 -6 -2 -5 -13z"/>
<path d="M3372 4015 c0 -16 2 -22 5 -12 2 9 2 23 0 30 -3 6 -5 -1 -5 -18z"/>
<path d="M5503 3656 c-370 -89 -676 -166 -680 -169 -5 -6 83 -356 105 -414 2
-7 0 -13 -6 -13 -17 0 -795 -357 -882 -405 -107 -59 -124 -75 -162 -152 -33
-67 -49 -184 -29 -213 17 -25 140 -28 1016 -29 958 -1 1493 13 1536 40 23 14
25 525 4 672 -19 131 -87 443 -148 677 -36 140 -46 165 -63 167 -10 1 -322
-72 -691 -161z"/>
</g>
</svg>
