<?xml version="1.0" standalone="no"?>
<!DOCTYPE svg PUBLIC "-//W3C//DTD SVG 20010904//EN"
 "http://www.w3.org/TR/2001/REC-SVG-20010904/DTD/svg10.dtd">
<svg version="1.0" xmlns="http://www.w3.org/2000/svg"
 width="225.000000pt" height="225.000000pt" viewBox="0 0 225.000000 225.000000"
 preserveAspectRatio="xMidYMid meet">

<g transform="translate(0.000000,225.000000) scale(0.100000,-0.100000)"
fill="#000000" stroke="none">
<path d="M1480 2030 c-157 -28 -292 -137 -351 -288 -19 -47 -23 -76 -24 -165
l0 -107 -50 6 c-320 36 -577 157 -800 376 -55 54 -100 98 -101 98 -1 0 -12
-24 -25 -52 -34 -78 -39 -223 -10 -316 22 -75 85 -169 142 -216 l34 -28 -49 7
c-28 4 -72 16 -99 26 -27 11 -52 18 -54 15 -11 -11 19 -144 44 -194 38 -80
129 -172 207 -210 36 -18 72 -32 81 -32 8 0 15 -4 15 -9 0 -13 -102 -25 -145
-17 -30 6 -35 4 -35 -12 0 -28 71 -131 123 -179 59 -54 147 -98 231 -115 l66
-14 -64 -42 c-137 -90 -296 -139 -479 -149 l-118 -6 58 -33 c289 -167 711
-206 1054 -98 94 30 249 108 336 170 222 158 398 404 488 679 36 109 65 287
65 398 l0 62 53 42 c45 35 167 170 167 185 0 2 -37 -8 -82 -23 -46 -15 -100
-29 -121 -32 l-38 -6 59 57 c56 55 102 122 117 170 l7 23 -51 -26 c-28 -14
-92 -39 -142 -56 l-90 -30 -39 35 c-53 48 -129 85 -209 102 -72 15 -103 16
-171 4z"/>
</g>
</svg>
